<?xml version="1.0" encoding="UTF-8"?>
<svg width="723px" height="477px" viewBox="0 0 723 477" version="1.1" xmlns="http://www.w3.org/2000/svg" xmlns:xlink="http://www.w3.org/1999/xlink">
    <!-- Generator: Sketch 52.3 (67297) - http://www.bohemiancoding.com/sketch -->
    <title>@2xteam</title>
    <desc>Created with Sketch.</desc>
    <defs>
        <linearGradient x1="50%" y1="50%" x2="50%" y2="3.061617e-15%" id="linearGradient-1">
            <stop stop-color="#ECF2FC" stop-opacity="0.64232337" offset="0%"></stop>
            <stop stop-color="#D4E1F8" offset="100%"></stop>
        </linearGradient>
        <linearGradient x1="38.9695617%" y1="41.5718056%" x2="76.7280577%" y2="30.8483612%" id="linearGradient-2">
            <stop stop-color="#7FA0D4" offset="0%"></stop>
            <stop stop-color="#D6E3FA" offset="100%"></stop>
        </linearGradient>
        <path d="M34.7845783,32.1091308 C35.8864238,35.909824 35.3881914,38.6528211 33.2888977,40.3382227 C30.1397302,42.8663251 26.9775508,47.1663295 23.8599294,47.5202679 C20.7424593,47.8743067 17.367022,49.5832171 16.8203735,53.9545517 C16.5564298,56.0665279 5.73822081,66.9843658 1.87325085,82.0056985 C0.894715202,85.8090037 2.08507148,91.6612935 5.44439534,99.5624675 L14.3820154,94.644603 L27.1115274,74.033998 C41.24889,69.1248741 49.2187167,66.0837971 51.0202512,64.9108677 C53.7230824,63.1515238 62.4785367,55.6228743 60.7904776,52.799907 C59.1023429,49.9770401 64.5945491,32.0419197 67.8562086,28.5556822 C71.1183219,25.0694447 73.7898339,16.5741204 73.8552713,13.4375012 C73.9201036,10.300882 75.0510744,0.910313777 66.9095217,1.20990054 C61.4816181,1.40972552 50.7732532,11.7095024 34.7845783,32.1091308 Z" id="path-3"></path>
        <linearGradient x1="50%" y1="0%" x2="50%" y2="100%" id="linearGradient-5">
            <stop stop-color="#CFDDF3" offset="0%"></stop>
            <stop stop-color="#A1B8E3" stop-opacity="0" offset="100%"></stop>
        </linearGradient>
        <linearGradient x1="-8.14988977%" y1="26.6868733%" x2="50%" y2="100%" id="linearGradient-6">
            <stop stop-color="#2D6DC0" offset="0%"></stop>
            <stop stop-color="#143B8C" offset="100%"></stop>
        </linearGradient>
        <linearGradient x1="38.3761593%" y1="59.0460022%" x2="31.1679871%" y2="80.9554112%" id="linearGradient-7">
            <stop stop-color="#2E7DE7" stop-opacity="0" offset="0%"></stop>
            <stop stop-color="#00357E" stop-opacity="0.5" offset="100%"></stop>
        </linearGradient>
        <path d="M110.245739,1.4164664 C125.235239,4.82901337 135.306986,10.5168041 140.460363,18.480221 C148.190198,30.4250915 152.063508,62.1548566 152.063508,72.446673 C152.063508,82.7384894 153.296142,107.985805 152.063508,114.87387 C150.831028,121.761935 145.170676,126.878652 133.456803,126.878652 C125.647503,126.878652 81.3851029,112.359361 0.670217758,83.3205256 C11.2851303,78.0735322 16.761604,74.4489997 17.099331,72.446673 C17.6059983,69.4433104 42.238195,14.6751885 50.0285524,9.0958762 C57.8190638,3.51669141 73.9903772,0.876241003 80.4735636,0.876241003 C79.5258338,3.50662114 77.4167731,5.62902625 80.3979485,9.0958762 C83.3791239,12.5628536 89.2290531,13.168472 95.0238495,10.7620598 C98.8868417,9.15782748 103.960754,6.04267217 110.245739,1.4164664 Z" id="path-8"></path>
        <filter x="-6.1%" y="-7.2%" width="111.6%" height="114.5%" filterUnits="objectBoundingBox" id="filter-10">
            <feGaussianBlur stdDeviation="7" in="SourceAlpha" result="shadowBlurInner1"></feGaussianBlur>
            <feOffset dx="-6" dy="1" in="shadowBlurInner1" result="shadowOffsetInner1"></feOffset>
            <feComposite in="shadowOffsetInner1" in2="SourceAlpha" operator="arithmetic" k2="-1" k3="1" result="shadowInnerInner1"></feComposite>
            <feColorMatrix values="0 0 0 0 0.0901960784   0 0 0 0 0.254901961   0 0 0 0 0.57254902  0 0 0 0.204200634 0" type="matrix" in="shadowInnerInner1"></feColorMatrix>
        </filter>
        <linearGradient x1="50%" y1="100%" x2="50%" y2="3.061617e-15%" id="linearGradient-11">
            <stop stop-color="#70B8F9" stop-opacity="0.27587183" offset="0%"></stop>
            <stop stop-color="#DA4931" offset="100%"></stop>
        </linearGradient>
        <linearGradient x1="55.2458064%" y1="54.3672421%" x2="100%" y2="81.9563837%" id="linearGradient-12">
            <stop stop-color="#EB8B3F" stop-opacity="0" offset="0%"></stop>
            <stop stop-color="#853620" offset="100%"></stop>
        </linearGradient>
        <linearGradient x1="55.2458064%" y1="54.3672421%" x2="100%" y2="81.9563837%" id="linearGradient-13">
            <stop stop-color="#3D82F0" stop-opacity="0" offset="0%"></stop>
            <stop stop-color="#BC4231" offset="100%"></stop>
        </linearGradient>
        <path d="M36.4275083,154.927129 C33.138617,153.075021 22.1304659,157.496418 22.1304659,166.438232 C16.2843722,146.547955 0.0608174317,119.625674 0.0608174317,90.2025454 C7.49796936,64.5524392 26.9000439,24.1142273 31.2330813,17.7675485 C34.1218477,13.5363686 48.4348529,7.61380883 74.1716471,5.1312792e-05 C79.9282747,6.28921015 86.750628,9.43388058 94.6384824,9.43388058 C106.470039,9.43388058 107.091806,2.18089737 110.252568,1.80246661 C113.413554,1.42385382 131.320265,9.43388058 140.152458,17.9557627 C148.984652,26.4774628 158.440636,59.9941597 181.672829,86.0115931 C204.905246,112.029026 213.238183,130.181325 224.765151,139.956998 C220.536415,143.742216 214.807887,145.947089 214.807887,154.927129 C210.635798,151.869831 187.357299,135.86616 167.627548,117.237865 C147.898021,98.6097515 139.1481,83.1173896 136.170317,81.0202752 C132.746103,78.6084389 140.486495,153.225374 140.152458,166.438232 C139.817972,179.651454 94.3689601,180.405039 80.1562109,180.405039 C65.943237,180.405039 43.962671,175.487806 38.3206859,170.63865 C37.3908018,169.839566 39.8280486,64.9293574 38.3206859,69.3313618 C34.4964037,80.4995481 25.6150764,86.0115931 25.6150764,93.3666925 C25.6150764,110.458744 36.4478699,156.130637 36.4275083,154.927129 Z" id="path-14"></path>
        <filter x="-3.8%" y="-4.7%" width="107.6%" height="109.4%" filterUnits="objectBoundingBox" id="filter-16">
            <feGaussianBlur stdDeviation="6.5" in="SourceAlpha" result="shadowBlurInner1"></feGaussianBlur>
            <feOffset dx="4" dy="2" in="shadowBlurInner1" result="shadowOffsetInner1"></feOffset>
            <feComposite in="shadowOffsetInner1" in2="SourceAlpha" operator="arithmetic" k2="-1" k3="1" result="shadowInnerInner1"></feComposite>
            <feColorMatrix values="0 0 0 0 0.729411765   0 0 0 0 0.8   0 0 0 0 0.933333333  0 0 0 1 0" type="matrix" in="shadowInnerInner1"></feColorMatrix>
        </filter>
        <linearGradient x1="0%" y1="107.337653%" x2="100%" y2="6.30084103%" id="linearGradient-17">
            <stop stop-color="#EAF0F7" stop-opacity="0.115545743" offset="0%"></stop>
            <stop stop-color="#D1DDED" offset="100%"></stop>
        </linearGradient>
        <linearGradient x1="108.826068%" y1="33.9339821%" x2="37.5483059%" y2="50%" id="linearGradient-18">
            <stop stop-color="#EAF0F7" stop-opacity="0.115545743" offset="0%"></stop>
            <stop stop-color="#D1DDED" offset="100%"></stop>
        </linearGradient>
        <linearGradient x1="16.204449%" y1="50%" x2="42.225093%" y2="50%" id="linearGradient-19">
            <stop stop-color="#B1C6E7" offset="0%"></stop>
            <stop stop-color="#E5EFFD" offset="100%"></stop>
        </linearGradient>
        <linearGradient x1="57.419755%" y1="50%" x2="21.6151001%" y2="41.705104%" id="linearGradient-20">
            <stop stop-color="#7FA0D4" offset="0%"></stop>
            <stop stop-color="#D6E3FA" offset="100%"></stop>
        </linearGradient>
        <linearGradient x1="50%" y1="100%" x2="100%" y2="68.8557973%" id="linearGradient-21">
            <stop stop-color="#002D65" offset="0%"></stop>
            <stop stop-color="#3A74C6" offset="87.7829946%"></stop>
            <stop stop-color="#3062AA" offset="100%"></stop>
        </linearGradient>
        <radialGradient cx="100%" cy="50%" fx="100%" fy="50%" r="72.4852892%" gradientTransform="translate(1.000000,0.500000),scale(1.000000,0.687510),rotate(-173.253064),translate(-1.000000,-0.500000)" id="radialGradient-22">
            <stop stop-color="#2D6DC0" offset="0%"></stop>
            <stop stop-color="#143B8C" offset="100%"></stop>
        </radialGradient>
        <linearGradient x1="43.2318333%" y1="5.00952834%" x2="40.9673798%" y2="74.0537149%" id="linearGradient-23">
            <stop stop-color="#EAEFFF" offset="0%"></stop>
            <stop stop-color="#FFFFFF" offset="100%"></stop>
        </linearGradient>
        <linearGradient x1="50%" y1="0%" x2="43.2115203%" y2="60.2836879%" id="linearGradient-24">
            <stop stop-color="#0041B2" offset="0%"></stop>
            <stop stop-color="#2D64D7" stop-opacity="0" offset="100%"></stop>
        </linearGradient>
        <path d="M27.5457623,14.7934066 C26.1633491,21.2505155 27.3563585,25.9221498 27.3563585,33.2713397 C27.3563585,43.0942495 7.28998252,39.0974292 6.60509132,31.6509373 C5.92020012,24.204533 6.72914148,14.2211885 3.9033003,7.45677332 C1.07745913,0.692314351 28.9281756,8.33634155 27.5457623,14.7934066 Z" id="path-25"></path>
        <linearGradient x1="50%" y1="0%" x2="50%" y2="100%" id="linearGradient-27">
            <stop stop-color="#699DF3" offset="0%"></stop>
            <stop stop-color="#8597B5" stop-opacity="0" offset="100%"></stop>
        </linearGradient>
        <polygon id="path-28" points="1.05650672 64.5897944 8.63286262 3.15030404 111.950523 1.08020881 102.916855 61.0634303"></polygon>
        <linearGradient x1="72.8421053%" y1="27.9286529%" x2="0%" y2="50%" id="linearGradient-30">
            <stop stop-color="#FF7F31" offset="0%"></stop>
            <stop stop-color="#FFC83A" stop-opacity="0" offset="100%"></stop>
        </linearGradient>
        <linearGradient x1="50%" y1="69.9897551%" x2="100%" y2="36.6087379%" id="linearGradient-31">
            <stop stop-color="#FF7F31" offset="0%"></stop>
            <stop stop-color="#FFC83A" stop-opacity="0" offset="100%"></stop>
        </linearGradient>
        <linearGradient x1="84.2424368%" y1="61.8032916%" x2="56.8028365%" y2="85.6330229%" id="linearGradient-32">
            <stop stop-color="#3D82F0" offset="0%"></stop>
            <stop stop-color="#143B8C" offset="100%"></stop>
        </linearGradient>
        <linearGradient x1="50%" y1="0%" x2="50%" y2="100%" id="linearGradient-33">
            <stop stop-color="#B2C7E8" offset="0%"></stop>
            <stop stop-color="#D6E3FA" offset="100%"></stop>
        </linearGradient>
        <linearGradient x1="50%" y1="0%" x2="50%" y2="100%" id="linearGradient-34">
            <stop stop-color="#C6D6EE" offset="0%"></stop>
            <stop stop-color="#E5EFFD" offset="100%"></stop>
        </linearGradient>
        <linearGradient x1="39.9744282%" y1="21.6577011%" x2="65.3375478%" y2="21.6577008%" id="linearGradient-35">
            <stop stop-color="#002B64" offset="0%"></stop>
            <stop stop-color="#0F3177" offset="100%"></stop>
        </linearGradient>
        <path d="M124.963649,131.443064 L193.203266,104.282371 C194.58928,103.730656 195.265677,102.159966 194.713498,100.774197 C194.427072,100.054413 193.844678,99.4923926 193.115095,99.230989 L106.225253,68.1019271 L20.509388,89.2775605 L124.963649,131.443064 Z" id="path-36"></path>
        <filter x="-5.6%" y="-16.1%" width="111.1%" height="131.7%" filterUnits="objectBoundingBox" id="filter-37">
            <feGaussianBlur stdDeviation="6.5" in="SourceAlpha" result="shadowBlurInner1"></feGaussianBlur>
            <feOffset dx="-9" dy="-4" in="shadowBlurInner1" result="shadowOffsetInner1"></feOffset>
            <feComposite in="shadowOffsetInner1" in2="SourceAlpha" operator="arithmetic" k2="-1" k3="1" result="shadowInnerInner1"></feComposite>
            <feColorMatrix values="0 0 0 0 0.239215686   0 0 0 0 0.509803922   0 0 0 0 0.941176471  0 0 0 0.775418931 0" type="matrix" in="shadowInnerInner1"></feColorMatrix>
        </filter>
        <linearGradient x1="83.8417763%" y1="27.1511499%" x2="17.2534776%" y2="72.9811718%" id="linearGradient-38">
            <stop stop-color="#DBE9FF" offset="0%"></stop>
            <stop stop-color="#A7BDE4" offset="44.0948136%"></stop>
            <stop stop-color="#5876AF" offset="100%"></stop>
        </linearGradient>
        <linearGradient x1="67.1719606%" y1="73.7219535%" x2="62.7667006%" y2="84.6490987%" id="linearGradient-39">
            <stop stop-color="#869FCE" stop-opacity="0" offset="0%"></stop>
            <stop stop-color="#4975C1" offset="100%"></stop>
        </linearGradient>
        <path d="M5.31665453,1.07044156 L101.598748,32.2144814 C104.431706,33.130755 106.533797,35.5258498 107.074113,38.4527909 L124.301904,131.782749 L19.9691087,89.4764218 L1.15359243,4.8568854 C0.765091785,3.10969293 1.86715993,1.37851276 3.61509943,0.990115431 C4.17935932,0.864796089 4.76681141,0.892453684 5.31665453,1.07044156 Z" id="path-40"></path>
        <filter x="-3.1%" y="-3.1%" width="106.3%" height="106.5%" filterUnits="objectBoundingBox" id="filter-41">
            <feGaussianBlur stdDeviation="3" in="SourceAlpha" result="shadowBlurInner1"></feGaussianBlur>
            <feOffset dx="-4" dy="1" in="shadowBlurInner1" result="shadowOffsetInner1"></feOffset>
            <feComposite in="shadowOffsetInner1" in2="SourceAlpha" operator="arithmetic" k2="-1" k3="1" result="shadowInnerInner1"></feComposite>
            <feColorMatrix values="0 0 0 0 1   0 0 0 0 1   0 0 0 0 1  0 0 0 0.5 0" type="matrix" in="shadowInnerInner1"></feColorMatrix>
        </filter>
        <linearGradient x1="100%" y1="50%" x2="0%" y2="50%" id="linearGradient-42">
            <stop stop-color="#D9E5F6" stop-opacity="0.71263587" offset="0%"></stop>
            <stop stop-color="#B2C6EA" offset="100%"></stop>
        </linearGradient>
        <linearGradient x1="45.4937897%" y1="122.264865%" x2="77.7351354%" y2="45.4937897%" id="linearGradient-43">
            <stop stop-color="#ACC5E9" offset="0%"></stop>
            <stop stop-color="#D3E3FB" offset="62.7469178%"></stop>
            <stop stop-color="#EAF2FF" offset="100%"></stop>
        </linearGradient>
        <path d="M74.5463534,1.82050116 C76.9857057,6.09271672 78.3519639,10.8793106 78.3519639,15.9339809 C78.3519639,33.981607 60.9333161,48.6121193 39.4461883,48.6121193 C17.9590606,48.6121193 0.54041278,33.981607 0.54041278,15.9339809 C0.54041278,10.5850852 2.07037264,5.53631322 4.78292923,1.0796784 C22.0180734,3.80713694 56.3233978,3.63141763 74.5463534,1.82050116 Z" id="path-44"></path>
        <linearGradient x1="77.5993706%" y1="0%" x2="40.2696226%" y2="146.300552%" id="linearGradient-46">
            <stop stop-color="#86A8D9" offset="0%"></stop>
            <stop stop-color="#BCD0F2" offset="100%"></stop>
        </linearGradient>
        <path d="M36.4742152,0.540151937 C56.0215496,0.540151937 71.8676995,4.28843635 71.8676995,8.91222177 C71.8676995,13.5360072 56.0215496,17.2842916 36.4742152,17.2842916 C16.9268809,17.2842916 1.08065805,13.5360072 1.08065805,8.91222177 C1.08065805,4.28843635 16.9268809,0.540151937 36.4742152,0.540151937 Z" id="path-47"></path>
        <path d="M34.5829251,99.3847448 C32.6500467,86.0144547 27.332861,66.7070823 11.3475223,45.9114207 C1.93105897,33.6614163 1.90032607,3.82992846 0.540407377,0.540100084 C7.92933499,3.0799569 21.2028023,9.62696251 34.5829251,28.0870128 C48.609078,47.4381879 39.7110911,86.9028671 34.5829251,99.3847448 Z" id="path-49"></path>
        <path d="M60.0394838,65.036677 C54.0680074,55.4894048 43.5174792,42.5510366 24.3259078,32.0603254 C13.0207323,25.8805584 2.96485549,3.14108502 0.820714693,1.08900436 C7.31315959,0.544502182 19.6435415,1.07977886 36.0617432,10.6642825 C53.2725107,20.711379 59.7548196,53.7957349 60.0394838,65.036677 Z" id="path-51"></path>
        <path d="M2.18684319,72.286488 C6.8951975,62.010275 15.7244184,47.7671672 33.4785101,34.8472327 C43.9368835,27.2365437 51.0009128,3.29801628 52.8701531,0.978270278 C46.3325196,1.27300555 34.1201888,3.39550788 19.0109154,15.0554892 C3.17228408,27.2783988 1.01085126,61.0568698 2.18684319,72.286488 Z" id="path-53"></path>
    </defs>
    <g id="Version-2" stroke="none" stroke-width="1" fill="none" fill-rule="evenodd">
        <g id="Partner-Program-v3" transform="translate(-924.000000, -215.000000)">
            <g id="15351" transform="translate(-566.000000, -372.000000)">
                <g id="team" transform="translate(1490.000000, 585.000000)">
                    <path d="M492.096007,87.3696329 C566.022492,92.1654756 625.83921,127.657375 641.975297,183.768909 C664.977883,263.757544 590.504652,355.358083 475.633996,388.364532 C393.745113,411.89397 313.432488,399.293902 265.731273,361.139714 C166.246729,369.463083 80.8493149,330.870103 60.9963408,261.83358 C36.7983008,177.687571 119.137988,80.1784861 244.906859,44.040196 C346.31011,14.9035769 444.985065,34.5579476 492.096001,87.3696325 Z" id="window" fill="url(#linearGradient-1)" opacity="0.2"></path>
                    <g id="guy-on-chair" transform="translate(448.497758, 140.435010)">
                        <path d="M202.526556,88.9672801 L81.7553119,66.4365893 C46.7071423,117.771203 30.1220583,161.063805 32.0002442,196.314046 C54.1437857,205.488314 96.773429,220.006486 159.88899,239.868736 L210.672978,103.351512 C212.7533,97.759565 209.904604,91.5405761 204.3104,89.4612603 C203.731079,89.2456925 203.133885,89.0805058 202.526556,88.9672801 Z" id="" fill="url(#linearGradient-2)"></path>
                        <g id="neck" transform="translate(47.011211, 63.735889)">
                            <mask id="mask-4" fill="white">
                                <use xlink:href="#path-3"></use>
                            </mask>
                            <use id="" fill="#D8B08D" xlink:href="#path-3"></use>
                            <path d="M65.2378334,48.2430427 C54.9420572,29.9788755 47.3896492,18.5550862 42.5806095,13.9716748 C37.7715697,9.38826338 49.2446266,4.78639672 76.9997803,0.166074835 L65.2378334,53.4148504 L65.2378334,48.2430427 Z" id="Path-3" fill="url(#linearGradient-5)" style="mix-blend-mode: multiply;" mask="url(#mask-4)"></path>
                        </g>
                        <path d="M73.3570092,31.40498 C69.6303576,33.9135079 72.8096934,44.0090308 68.7755101,49.7720558 C66.5699008,52.9229766 61.9305832,54.6751043 59.7883985,55.9291112 C53.7282077,59.4767069 59.9557747,62.0089619 61.2081236,64.1205211 C62.4606076,66.2320803 61.4622273,71.00261 60.5243672,74.7624269 C59.5866421,78.5222437 56.2593156,86.9944847 59.8266965,88.8875789 C63.3940098,90.7806731 85.2968436,99.0460555 91.6303885,96.5215137 C97.9639333,93.9969719 100.228577,81.3505357 101.789606,80.527876 C103.35077,79.7050694 104.447158,80.5734202 105.888294,80.9327048 C109.639465,81.8676087 113.026974,79.7660398 114.830151,76.7749643 C116.872166,73.3876545 119.775514,74.9335113 118.205704,70.3045357 C115.783884,63.1638 101.747525,35.0376405 96.1704826,33.0157004 C90.59344,30.9936869 79.1210835,27.5248384 73.3570092,31.40498 Z" id="" fill="#F7CAA4"></path>
                        <path d="M91.5503743,39.1327556 C77.2871146,35.5779609 70.6544017,38.7623485 65.4897647,27.6816417 C62.4393094,21.1371542 68.3788127,1.06063433 78.3813005,0.606346519 C80.8426827,11.8284779 92.7337632,12.7934047 99.6239175,13.7258327 C136.618999,18.7323408 140.490154,52.5439361 129.414927,72.4600489 C125.849112,78.8718577 122.55027,83.4792366 119.607446,86.9331557 C117.739427,89.1260808 115.297505,91.7677281 114.472914,93.0216658 C114.197362,93.4399764 111.811123,98.7208858 111.398311,98.6180226 C110.151694,98.3074452 110.652041,98.244634 111.263752,92.7785707 C111.87602,87.3126068 112.217501,85.8417121 113.326859,81.3939452 C113.65436,80.0802772 119.858136,69.9894427 115.09384,66.3358596 C111.918119,63.9001375 107.627163,65.3878282 102.221924,70.7989317 L98.9392868,69.5627839 C101.108277,64.742821 102.478571,61.1844485 103.051917,58.8879645 C103.911141,55.4430894 105.813713,42.6876497 91.5503743,39.1327556 Z" id="" fill="#143B8C"></path>
                        <path d="M98.944117,69.7274812 C97.8552942,72.1526993 93.7469466,77.7436601 90.0395453,79.763048 C86.3316036,81.782517 78.5217987,81.9059107 76.919635,79.6036813 C75.3174713,77.3014519 68.0404601,66.872613 61.4816397,65.2379495 C61.1523991,66.5578901 60.2537825,68.8031623 58.7858439,71.9738877 C63.8621361,74.0834917 66.8104955,76.0678789 67.6308141,77.9270493 C68.861265,80.7158051 69.5222318,78.8473173 68.2932939,80.0864807 C67.0643561,81.3256441 60.6473258,80.3729681 60.1601924,75.5369535 C58.3089774,79.3879245 56.3205112,89.7823703 57.0215186,92.1573154 C57.722472,94.5323415 61.7575469,95.6214555 65.7396666,95.8770742 C69.7217323,96.1326119 83.9097157,98.297107 87.5230946,97.5588509 C91.1370139,96.8205949 95.7273614,97.2455863 98.7506686,88.4946353 C101.773976,79.7436032 101.10177,74.0740933 105.046929,66.6207617 C108.992088,59.1674302 100.0324,67.3022226 98.944117,69.7274812 Z" id="" fill="url(#linearGradient-6)"></path>
                        <g id="shirt" transform="translate(0.000000, 103.705853)">
                            <mask id="mask-9" fill="white">
                                <use xlink:href="#path-8"></use>
                            </mask>
                            <g id="">
                                <use fill="#F05C42" fill-rule="evenodd" xlink:href="#path-8"></use>
                                <use fill="url(#linearGradient-7)" fill-rule="evenodd" xlink:href="#path-8"></use>
                                <use fill="black" fill-opacity="1" filter="url(#filter-10)" xlink:href="#path-8"></use>
                            </g>
                            <path d="M72.5777242,2.98402568 C60.1641459,15.6855685 84.6524542,22.453211 94.6517381,19.0693897 C101.317927,16.8135089 108.391386,11.4517209 115.872115,2.98402568 C97.0225904,-11.0376091 85.0944775,-14.5430178 80.0877762,-7.53220039 C72.5777242,2.98402568 84.9913025,-9.71751711 72.5777242,2.98402568 Z" id="Path-6" fill="url(#linearGradient-11)" style="mix-blend-mode: multiply;" opacity="0.585435268" mask="url(#mask-9)"></path>
                            <path d="M54.886393,117.901089 C63.7262122,117.901089 121.19863,108.387844 121.19863,100.665834 C121.19863,95.5178278 119.721551,74.8095561 116.767393,38.5410193" id="Path-8" fill="url(#linearGradient-12)" style="mix-blend-mode: multiply;" opacity="0.546540179" mask="url(#mask-9)"></path>
                            <path d="M-25.6292113,84.4103153 C-21.6257147,84.4103153 -3.11528431,107.851455 13.7960348,99.961569 C34.2253252,90.4303925 46.1213339,55.1398849 46.1213339,50.9151231 C46.1213339,47.6831134 51.484952,36.2215097 49.4424961,23.7333293 C48.6352916,18.7978417 44.9373081,10.9686446 38.3485456,0.245737939" id="Path-8-Copy" fill="url(#linearGradient-13)" style="mix-blend-mode: multiply;" opacity="0.546540179" mask="url(#mask-9)"></path>
                        </g>
                    </g>
                    <g id="guy-standin" transform="translate(280.986547, 0.000000)">
                        <path d="M74.614343,72.9823137 C76.7896982,89.5531885 77.2066352,99.1958884 75.8651541,101.910413 C73.8529111,105.98231 77.7503139,125.137186 90.1603268,126.24773 C102.57034,127.358201 109.076043,122.072581 109.563885,109.148855 C110.051728,96.2251289 110.828826,91.2426297 112.832958,85.5238029 C114.837091,79.8049031 77.4867988,56.1115265 75.8651541,60.4917944 C74.7839438,63.4120216 74.3670921,67.5755767 74.614343,72.9823137 Z" id="" fill="#D8B08D"></path>
                        <path d="M125.621633,34.9130568 C125.621633,38.5975135 126.11118,50.0996102 125.740857,53.014261 C125.370534,55.9289859 125.075741,60.2723987 125.408299,65.883627 C125.740857,71.4949293 122.825661,85.2958617 119.571249,90.2957888 C117.628248,93.2809602 109.926934,99.0359674 102.372624,98.2274604 C93.4171506,97.2689585 83.6250461,88.6250519 82.5775628,84.3028766 C80.6465454,76.3347237 82.2466385,69.3031693 76.681929,65.0689781 C71.1172196,60.8347869 67.0620649,56.9018435 67.5623853,50.3651166 C68.0627056,43.8284637 73.777142,28.2676262 76.681929,27.6137019 C79.5867161,26.9598517 125.621633,31.2286741 125.621633,34.9130568 Z" id="" fill="#F7CAA4"></path>
                        <path d="M77.8152882,30.2087027 C80.4561565,34.1916124 103.575299,53.3917789 126.747259,40.9264175 C149.919032,28.4611295 119.095191,5.83178199 105.117753,3.25001613 C91.140315,0.66832373 79.1034711,2.10333187 70.6490468,13.8298496 C62.1946225,25.5564409 57.9535283,45.6541945 74.4933097,72.9181738 C75.221348,68.591773 75.5854606,65.7085343 75.5854606,64.2686044 C69.0035755,58.2489895 67.3581043,52.6394924 70.6490468,47.440113 C75.5854606,39.6410439 77.2184053,54.9323467 77.8152882,57.3887927 C79.7801877,57.3887927 81.0168619,57.0464035 81.5254043,56.3614782 C80.1712232,52.5021253 79.6774509,48.9330063 80.0440876,45.6541945 C80.5939491,40.7358666 82.2188543,39.6410439 77.8152882,30.2087027 Z" id="" fill="#333333"></path>
                        <path d="M33.6999889,317.71911 C33.6999889,311.710159 26.7363575,272.351849 41.0891424,260.527174 C55.4419274,248.702499 73.1954096,265.952395 138.580856,268.56597 C139.657513,294.999397 139.657513,313.608727 138.580856,324.39396 C137.504301,335.179193 98.008779,350.468364 33.6999889,317.71911 Z" id="" fill="#3D82F0"></path>
                        <path d="M22.6171292,266.748886 C24.1587294,273.575257 29.260104,280.867562 30.978608,282.442472 C32.6970871,284.01731 38.9491934,285.969274 40.1313438,285.59023 C41.3134942,285.211222 44.4242854,282.612018 44.5650727,279.570041 C44.7058847,276.528064 41.7217622,274.814225 41.7012059,270.319404 C41.6806744,265.824618 34.2022974,259.305094 34.2022974,255.328608 C34.2022974,251.352158 21.0755537,259.922479 22.6171292,266.748886 Z" id="" fill="#F7CAA4"></path>
                        <path d="M214.821621,257.383174 C219.459472,263.532833 222.479052,264.608883 224.217454,266.44272 C225.955818,268.276558 229.934064,274.750884 231.411286,273.671804 C232.888582,272.592763 234.41845,270.4672 232.119659,266.44272 C229.82083,262.418318 226.339553,258.173635 227.548026,256.043393 C228.756574,253.913229 234.655582,247.61673 239.579481,246.154959 C244.503231,244.693151 246.13895,245.637317 246.629543,244.851918 C247.12021,244.066672 240.741274,242.926578 238.112848,242.631862 C235.484198,242.337146 231.759339,241.998864 226.388582,242.631862 C222.808053,243.05386 220.313927,241.566013 218.906166,238.168433 C213.091273,246.878539 211.729709,253.283414 214.821621,257.383174 Z" id="" fill="#F7CAA4"></path>
                        <g id="shirt" transform="translate(0.000000, 102.625584)">
                            <mask id="mask-15" fill="white">
                                <use xlink:href="#path-14"></use>
                            </mask>
                            <g id="">
                                <use fill="#3BB568" fill-rule="evenodd" xlink:href="#path-14"></use>
                                <use fill="black" fill-opacity="1" filter="url(#filter-16)" xlink:href="#path-14"></use>
                            </g>
                            <path d="M33.5557285,78.5221508 L53.9178424,51.4719027 C58.9462647,109.95328 50.237211,149.322634 27.7906812,169.579967 C21.8578692,134.431658 25.1608624,116.060808 27.7906812,100.70178 C28.9419816,93.9777969 30.863664,86.5845872 33.5557285,78.5221508 Z" id="Path-4" fill="url(#linearGradient-17)" style="mix-blend-mode: multiply;" mask="url(#mask-15)"></path>
                            <path d="M40.3443602,175.689734 C47.9456405,153.429466 82.1041588,80.1122532 96.7235094,69.6579065 C111.34286,59.2035597 112.444117,45.7106131 111.893489,27.8014378 C111.34286,9.89226247 77.1973743,-25.7893023 59.345932,-12.2930989 C41.4944896,1.20310448 -6.29615767,26.1036776 -11.5222415,67.8580391 C-16.7483254,109.612401 5.50814524,173.657487 15.5628178,167.326257 C25.6174904,160.995026 32.7430798,197.950002 40.3443602,175.689734 Z" id="Path-5" fill="url(#linearGradient-18)" style="mix-blend-mode: multiply;" opacity="0.161551339" mask="url(#mask-15)"></path>
                        </g>
                        <path d="M76.3371326,89.1118471 C76.3371326,93.1820993 82.5294233,104.559644 94.4870911,104.126753 C106.44472,103.693943 108.850073,103.364758 110.208976,97.2957379 C110.208976,106.287319 110.674834,108.9415 108.469574,114.870923 C106.264236,120.800224 92.5198957,124.0512 84.8111724,119.125982 C77.1023713,114.200764 73.0850721,111.252196 74.2127576,102.260615 C75.340443,93.268953 76.3371326,85.0415544 76.3371326,89.1118471 Z" id="" fill="url(#linearGradient-19)"></path>
                    </g>
                    <g id="girl-and-desk" transform="translate(0.000000, 49.692388)">
                        <path d="M86.1330077,164.21799 L195.787553,137.734396 C216.067667,192.391043 225.268626,237.344464 223.390428,272.594833 C201.246838,281.769028 168.031753,293.663947 123.745024,308.279417 L78.4647411,178.27025 C76.5024207,172.635742 79.4811278,166.478045 85.1178228,164.516342 C85.4511603,164.400402 85.7899058,164.300779 86.1330077,164.21799 Z" id="chair" fill="url(#linearGradient-20)"></path>
                        <path d="M210.951694,145.12821 C208.604002,152.560672 216.230645,173.545299 228.34672,183.799869 C240.462877,194.05444 201.492712,192.310938 201.469838,180.878009 C201.447004,169.44508 213.299263,137.695864 210.951694,145.12821 Z" id="hair" fill="#316EEA"></path>
                        <path d="M216.255077,168.417856 C225.417823,172.195147 232.023592,176.22889 236.072566,180.519085 C242.145845,186.954226 271.68131,237.007545 275.16364,239.970431 C278.64606,242.933519 302.612703,245.178258 306.221146,246.360726 C304.375647,249.030394 300.785103,257.27383 302.630693,264.524386 C296.934934,267.390509 284.423734,264.831442 258.831859,261.965319 C239.794613,246.04761 229.909703,220.942267 225.839177,208.957195 C221.76856,196.972223 218.573982,183.459144 216.255077,168.417856 Z" id="arm" fill="url(#linearGradient-21)"></path>
                        <path d="M228.827803,177.001688 C236.22528,189.649703 247.636256,215.046398 250.876593,226.010112 C254.351778,237.768833 240.843097,268.732905 240.999972,276.008862 C241.130799,282.076246 234.884553,279.957658 179.39783,285.539504 C177.682997,274.841732 177.682997,261.465532 179.39783,245.41115 C181.970037,221.329208 171.48834,188.929979 174.394359,183.489748 C177.300378,178.049518 184.370027,166.480843 187.473468,166.480843 C190.576824,166.480843 221.430327,164.353795 228.827803,177.001688 Z" id="shirt" fill="url(#radialGradient-22)"></path>
                        <path d="M0,310.125483 L312.161572,244.986465 C329.6776,241.331381 357.542871,243.222998 374.398599,249.210872 L702.406592,365.733306 C730.508381,375.71626 729.513492,388.215539 700.201886,393.647993 L561.890827,419.281816 C532.571412,424.715718 484.626303,429.120765 454.804105,429.120765 L53.9992259,429.120765 C24.1762769,429.120765 0,404.950685 0,375.128651 L0,310.125483 Z" id="desk-top" fill="url(#linearGradient-23)"></path>
                        <polyline id="shadow" fill="url(#linearGradient-24)" opacity="0.196930804" style="mix-blend-mode: multiply;" points="240.245595 321.697571 372.525032 300.326256 473.17077 344.404295 327.464903 383.040543"></polyline>
                        <g id="neck" transform="translate(180.479821, 133.413259)">
                            <mask id="mask-26" fill="white">
                                <use xlink:href="#path-25"></use>
                            </mask>
                            <use id="" fill="#BC9F88" xlink:href="#path-25"></use>
                            <path d="M-1.18175269,43.5282003 C19.025528,26.6039812 31.4609227,18.1418716 36.1244315,18.1418716 C40.7879403,18.1418716 28.3525455,15.3047757 -1.18175269,9.63058389 L-1.18175269,43.5282003 Z" id="Path" fill="url(#linearGradient-27)" style="mix-blend-mode: multiply;" opacity="0.717131696" mask="url(#mask-26)"></path>
                        </g>
                        <path d="M214.187021,96.2470216 C215.970581,101.876694 215.770936,108.119812 219.231609,113.496021 C222.692166,118.872158 227.251501,123.567616 228.462503,125.956376 C229.673622,128.345137 223.605364,130.467315 223.605364,132.603396 C223.605364,134.739549 227.649391,149.602854 225.485332,151.023248 C224.252095,154.342587 201.541731,158.943646 195.807284,155.647407 C190.751958,155.647407 182.960541,151.214041 178.179267,140.319955 C173.397993,129.42594 173.177514,102.97197 178.179267,96.2470216 C183.18102,89.5221442 212.403519,90.6174206 214.187021,96.2470216 Z" id="face" fill="#F7CAA4"></path>
                        <g id="document" transform="translate(248.565022, 246.841536)">
                            <mask id="mask-29" fill="white">
                                <use xlink:href="#path-28"></use>
                            </mask>
                            <use id="" fill="#FCC700" xlink:href="#path-28"></use>
                            <polygon id="Path-2" fill="url(#linearGradient-30)" opacity="0.458035714" style="mix-blend-mode: multiply;" mask="url(#mask-29)" points="108.387316 48.0345951 94.9376434 -0.534150379 116.604388 -0.534150379"></polygon>
                            <path d="M12.5388522,36.2482148 C12.5388522,40.1238652 21.8743591,45.7487574 32.8502031,50.6726079 C39.2141176,53.5275103 38.3369337,60.154979 41.106373,60.154979 C46.1369675,60.154979 30.7921339,67.4116249 -4.92812765,81.9249167 C-6.86532186,62.299296 -6.86532186,49.925605 -4.92812765,44.8038438 C-1.76148269,36.4315291 12.5388522,34.1196108 12.5388522,36.2482148 Z" id="Path-7" fill="url(#linearGradient-31)" opacity="0.528404018" style="mix-blend-mode: multiply;" mask="url(#mask-29)"></path>
                        </g>
                        <path d="M241.208767,286.506265 C244.345893,286.506265 248.144749,284.847528 253.692675,283.580232 C259.240711,282.312935 262.739843,280.298638 264.443166,282.172473 C265.108809,282.904539 263.998265,284.686611 263.186618,285.172878 C262.374916,285.659107 261.944676,286.37397 258.070255,287.805926 C254.474834,289.134739 252.392915,289.756477 253.042795,290.994547 C253.692675,292.232654 259.58293,293.310071 261.469626,293.809458 C263.877174,294.446661 267.498334,295.68957 270.951333,296.269188 C274.810376,296.916977 279.074361,296.988891 279.564403,297.271667 C280.492732,297.807503 281.850253,299.823539 279.564403,300.466829 C279.024315,300.618785 275.118919,300.697239 270.368971,300.466829 C265.296646,300.220727 260.645467,299.248987 261.469626,300.466829 C261.665069,300.755541 266.342594,301.709322 271.480507,301.709322 C274.525258,301.709322 280.687073,302.087945 281.076857,302.087945 C282.485858,302.087945 283.193059,304.013769 281.91496,304.961462 C281.616724,305.182685 275.671022,305.855352 270.951333,306.028973 C265.518766,306.228796 260.711001,305.736895 260.654121,306.028973 C260.612618,306.241991 266.334878,306.961467 271.480507,306.716651 C275.64396,306.518454 277.933227,306.192839 278.711474,306.716651 C279.48983,307.240349 279.292623,308.639676 278.711474,309.26943 C278.469842,309.53126 274.707584,310.727135 270.951333,310.975883 C265.676124,311.325242 259.944605,310.714809 259.893897,310.975883 C259.759248,311.6684 269.507278,312.107216 270.951333,312.107216 C273.007347,312.107216 272.748244,314.764954 270.368971,315.327823 C267.384463,316.033877 261.209751,315.977692 258.399466,315.977692 C255.589237,315.977692 251.366369,315.327823 247.14091,313.759602 C242.915452,312.191342 237.273277,310.091142 233.696871,309.26943 C229.831765,308.381362 232.607326,296.166687 235.283457,289.757649 C237.959588,283.348611 238.07164,286.506265 241.208767,286.506265 Z" id="hand" fill="#F7CAA4"></path>
                        <path d="M147.823251,216.036076 C139.831033,236.46481 146.149406,251.970151 149.657761,269.669815 C153.166217,287.369479 154.762458,291.19991 160.353797,294.799668 C165.945238,298.399426 179.656013,303.413938 232.354291,309.497137 C232.354291,305.289577 232.219899,294.837289 239.107672,286.060225 C229.369664,286.060225 194.753964,276.516822 182.852234,273.526017 C172.15933,265.334666 182.852234,252.201283 182.852234,227.560847 C182.852234,202.920641 155.815469,195.607342 147.823251,216.036076 Z" id="arm" fill="url(#linearGradient-32)"></path>
                        <g id="glasses" transform="translate(177.778027, 101.005180)">
                            <polygon id="" fill="#143B8C" points="27.8299424 16.2885339 0.855452735 21.3684182 0.855452735 23.3863699 28.7901869 21.2608148"></polygon>
                            <path d="M35.0111053,26.8449731 C31.8968277,27.1721867 28.9508113,23.466258 28.4364503,18.5744097 C27.9220892,13.6825398 30.0328818,9.44539949 33.1471595,9.11820752 C36.2614371,8.79097235 39.2074535,12.496901 39.7218145,17.3887493 C40.2361755,22.2806192 38.125383,26.5178028 35.0111053,26.8449731 Z" id="" stroke="#143B8C" stroke-width="2.15999981" fill-opacity="0" fill="#000000"></path>
                            <path d="M50.0523303,18.1303558 C47.2346675,18.4263934 44.569215,15.073393 44.1038311,10.6474589 C43.6384893,6.22146484 45.5482284,2.38784564 48.3659474,2.0918081 C51.1836103,1.79579054 53.8490627,5.14875094 54.3144045,9.57470503 C54.7797885,14.0006391 52.8700072,17.8342983 50.0523303,18.1303558 Z" id="" stroke="#143B8C" stroke-width="2.15999981" fill-opacity="0" fill="#000000"></path>
                            <path d="M39.155458,15.6810175 C39.155458,14.4470847 42.6402705,12.0273928 44.3883613,13.245236" id="" stroke="#143B8C" stroke-width="2.15999981" fill-opacity="0" fill="#000000"></path>
                        </g>
                        <path d="M180.052548,98.8105223 C187.520457,104.582609 204.896434,106.275244 216.723774,100.698695 C228.551228,95.1221458 231.437353,72.2907059 216.723774,65.2660603 C211.127482,62.5943382 200.012222,64.3238407 201.553803,72.3779744 C188.680796,67.4022712 174.682504,71.7596282 169.132263,75.0786303 C160.484541,80.2501042 153.743949,85.8847543 150.199699,97.7303999 C146.655449,109.575812 152.44179,121.356123 149.594041,127.388615 C146.746292,133.420873 138.356894,138.658382 142.842222,157.196166 C147.327435,175.733717 136.549772,172.767755 134.120153,184.075323 C131.690419,195.382657 139.429368,200.777669 134.120153,208.312159 C128.810823,215.846415 118.632747,247.654608 137.696249,264.690161 C156.759637,281.725947 192.283469,294.137671 200.35589,257.465311 C208.428426,220.792951 170.561465,212.786885 181.673745,194.448371 C192.785912,176.110091 185.424654,159.108139 187.750715,153.86503 C190.61244,147.414396 187.535579,137.571026 182.100925,124.231083 C177.067447,111.875593 184.31369,108.576891 180.052548,98.8105223 Z" id="hair" fill="#509CF6"></path>
                        <g id="documents" transform="translate(245.863229, 333.263081)">
                            <path d="M0.507918848,24.231172 L72.4081452,11.8829562 C112.094406,36.6734129 131.543139,49.1481246 130.754475,49.3072525 C129.632561,49.5335258 50.2391691,63.4107132 44.8760459,64.8491002 C45.3779829,63.5686584 30.5847967,50.0257471 0.507918848,24.231172 Z" id="" fill="url(#linearGradient-33)"></path>
                            <polygon id="" fill="url(#linearGradient-34)" points="43.1962086 5.05376636 118.334281 0 159.641417 36.0758521 66.0305119 42.5311633"></polygon>
                        </g>
                        <g id="laptop" transform="translate(348.531390, 212.272919)">
                            <g id="">
                                <use fill="url(#linearGradient-35)" fill-rule="evenodd" xlink:href="#path-36"></use>
                                <use fill="black" fill-opacity="1" filter="url(#filter-37)" xlink:href="#path-36"></use>
                            </g>
                            <g id="">
                                <use fill="url(#linearGradient-38)" fill-rule="evenodd" xlink:href="#path-40"></use>
                                <use fill-opacity="0.230000019" fill="url(#linearGradient-39)" fill-rule="evenodd" xlink:href="#path-40"></use>
                                <use fill="black" fill-opacity="1" filter="url(#filter-41)" xlink:href="#path-40"></use>
                            </g>
                            <path d="M53.6155423,69.8556595 C58.5777702,72.2748816 63.8099147,72.2701651 65.9685777,67.8462495 C68.1271163,63.4222739 64.2332458,58.4149567 59.271018,55.9956747 C54.3087902,53.5764126 49.6169763,53.581209 47.4583879,58.0051047 C45.2997747,62.4290603 48.6533145,67.4363975 53.6155423,69.8556595 Z" id="" fill="#D6E3FA"></path>
                        </g>
                        <g id="glasses" transform="translate(356.096413, 0.000000)">
                            <path d="M13.2940614,8.70205661 C13.2829932,6.61527988 14.9642398,4.91384843 17.0556072,4.90176627 L27.1201467,4.84362185 C29.2086593,4.83155618 30.8723487,6.52282206 30.8364826,8.59908365 L30.7524183,13.4654958 C30.7163814,15.5516457 28.9920868,17.2212944 26.9012998,17.1947631 L17.1240614,17.0706933 C15.0331844,17.0441608 13.3292031,15.3275929 13.3181529,13.2442085 L13.2940614,8.70205661 Z" id="" stroke="#0E1827" stroke-width="2.69999977"></path>
                            <path d="M41.8838312,8.64886137 C41.8609067,6.56291636 43.532702,4.87259625 45.6223706,4.87342751 L54.1416052,4.87681642 C56.229268,4.87764688 57.9052959,6.57845907 57.8853307,8.65361229 L57.8385356,13.5174266 C57.8184753,15.6024629 56.1084497,17.2577692 54.0313662,17.21491 L45.746085,17.0439492 C43.6635037,17.0009766 41.9566168,15.2717569 41.9337295,13.1892029 L41.8838312,8.64886137 Z" id="" stroke="#0E1827" stroke-width="2.69999977"></path>
                            <path d="M30.7762317,10.2625584 L41.5833915,10.2625584" id="" stroke="#0E1827" stroke-width="2.15999981" fill-opacity="0" fill="#000000"></path>
                            <polygon id="" fill="#131F31" points="0.947897309 1.07008885 14.1158174 7.46358387 14.1158174 13.7240761 2.19730615 5.41153509"></polygon>
                        </g>
                        <path d="M223.833845,136.575835 C224.364489,136.302604 224.197624,137.511576 224.428467,138.221161 C224.659275,138.930747 224.81645,139.042411 224.892422,139.505139 C222.691659,140.638251 218.861367,140.861704 216.296608,139.345016 C215.782951,139.041258 215.334111,138.792221 215.759768,138.373964 C216.18538,137.955678 216.71573,138.217769 217.288065,138.387054 C219.285481,138.977661 222.462484,137.281926 223.833845,136.575835 Z" id="mouth" fill="#1A418F"></path>
                        <g id="Plant" transform="translate(91.860987, 241.440190)">
                            <g id="Pot" transform="translate(21.614350, 96.684103)">
                                <path d="M32.9618861,41.590364 C50.8677868,41.590364 65.3834189,44.734127 65.3834189,48.6121188 C65.3834189,52.4901106 50.8677868,55.6338736 32.9618861,55.6338736 C15.0559854,55.6338736 0.540353341,52.4901106 0.540353341,48.6121188 C0.540353341,44.734127 15.0559854,41.590364 32.9618861,41.590364 Z" id="shadow" fill="url(#linearGradient-42)" opacity="0.7"></path>
                                <g id="pot" transform="translate(1.621076, 5.941481)">
                                    <mask id="mask-45" fill="white">
                                        <use xlink:href="#path-44"></use>
                                    </mask>
                                    <use id="Ellipse-2" fill="url(#linearGradient-43)" xlink:href="#path-44"></use>
                                </g>
                                <g id="inside" transform="translate(4.863229, 0.000000)">
                                    <mask id="mask-48" fill="white">
                                        <use xlink:href="#path-47"></use>
                                    </mask>
                                    <use id="Ellipse-1" fill="url(#linearGradient-46)" xlink:href="#path-47"></use>
                                </g>
                            </g>
                            <g id="leaves">
                                <g id="leaf">
                                    <g transform="translate(25.396861, 0.000000)">
                                        <g id="Shape-2">
                                            <mask id="mask-50" fill="white">
                                                <use xlink:href="#path-49"></use>
                                            </mask>
                                            <use fill="#62D59B" xlink:href="#path-49"></use>
                                            <path d="" id="Shape-3" stroke="#489C71" stroke-width="1.61999986" fill-opacity="0" fill="#000000" opacity="0.5" style="mix-blend-mode: multiply;" mask="url(#mask-50)"></path>
                                        </g>
                                    </g>
                                    <g transform="translate(0.000000, 48.071984)">
                                        <g id="Shape-2">
                                            <mask id="mask-52" fill="white">
                                                <use xlink:href="#path-51"></use>
                                            </mask>
                                            <use fill="#62D59B" xlink:href="#path-51"></use>
                                            <path d="" id="Shape-3" stroke="#489C71" stroke-width="1.61999986" fill-opacity="0" fill="#000000" opacity="0.5" style="mix-blend-mode: multiply;" mask="url(#mask-52)"></path>
                                        </g>
                                    </g>
                                    <g transform="translate(62.141256, 42.130503)">
                                        <g id="Shape-2">
                                            <mask id="mask-54" fill="white">
                                                <use xlink:href="#path-53"></use>
                                            </mask>
                                            <use fill="#62D59B" xlink:href="#path-53"></use>
                                            <path d="M3.28963294,65.9721674 L27.2761964,21.4819315 C16.0632115,32.1449374 8.98735107,45.3195487 3.28963294,65.9721674 Z" id="Shape-3" stroke="#489C71" stroke-width="1.61999986" fill-opacity="0" fill="#000000" opacity="0.5" style="mix-blend-mode: multiply;" mask="url(#mask-54)"></path>
                                        </g>
                                    </g>
                                </g>
                            </g>
                        </g>
                    </g>
                </g>
            </g>
        </g>
    </g>
</svg>