<svg xmlns="http://www.w3.org/2000/svg" xmlns:xlink="http://www.w3.org/1999/xlink" width="690" height="537.85" viewBox="0 0 690 537.85">
  <defs>
    <linearGradient id="linear-gradient" x1="-79.746" y1="1.225" x2="-79.746" y2="0.221" gradientUnits="objectBoundingBox">
      <stop offset="0" stop-color="#29225e"/>
      <stop offset="1" stop-color="#3f368c"/>
    </linearGradient>
    <linearGradient id="linear-gradient-2" x1="-83.319" y1="1.22" x2="-83.319" y2="0.218" xlink:href="#linear-gradient"/>
    <linearGradient id="linear-gradient-3" x1="0.755" y1="1.136" x2="0.18" y2="0.178" gradientUnits="objectBoundingBox">
      <stop offset="0" stop-color="#b3d3f4"/>
      <stop offset="1" stop-color="#d3dced"/>
    </linearGradient>
    <linearGradient id="linear-gradient-4" x1="0.755" y1="1.235" x2="0.245" y2="-0.235" gradientUnits="objectBoundingBox">
      <stop offset="0" stop-color="#cde8ff"/>
      <stop offset="1" stop-color="#eee7e9"/>
    </linearGradient>
    <linearGradient id="linear-gradient-5" x1="0.75" y1="1.588" x2="0.25" y2="0.412" xlink:href="#linear-gradient-4"/>
  </defs>
  <g id="Group_10017" data-name="Group 10017" transform="translate(-1090 -511.796)">
    <path id="Path_41724" data-name="Path 41724" d="M1127.647,478.662h637.72c20.776,0-16.411,10.847-28.6,23.03s-11.473,17.251-41.79,26.47c-65.2,19.828-93.1-18.984-196.622-3.706-44.106,6.51-100.354,18.945-144.718,12.336-37.365-5.565-46.436-31.047-74.675-33.112-43.352-3.169-64.977-.055-104.531-1.988C1140.548,500.036,1073.445,478.662,1127.647,478.662Z" transform="translate(8.444 510.974)" fill="#e9e9e9"/>
    <g id="Group_8651" data-name="Group 8651" transform="translate(1090 768.993)">
      <g id="Group_8648" data-name="Group 8648" transform="translate(532.849)">
        <path id="Path_41725" data-name="Path 41725" d="M1395.187,574.105c-2.039-70.192,13.829-155.381,69.124-203.735,8.875-7.761,19.726-17.761,32.321-16.85,5.861.425,8.766,7.129,9.647,12.1,1.574,8.879.042,18.013-2.125,26.765-11.968,48.337-51.442,132.954-61.541,181.718" transform="translate(-1395.016 -353.463)" fill="#569a39"/>
        <path id="Path_41726" data-name="Path 41726" d="M1475.482,364.228c-54.965,71.838-64.852,161.6-63.116,200.46" transform="translate(-1381.929 -345.257)" fill="none" stroke="#92d0ff" stroke-miterlimit="10" stroke-width="1"/>
        <g id="Group_8647" data-name="Group 8647" transform="translate(48.597 66.752)">
          <path id="Path_41727" data-name="Path 41727" d="M1422.024,545.23c7.4-45.426,15.179-82.526,41.212-120.48,10.71-15.616,31.341-34.914,47.756-33.317,17.615,1.711,5.115,28.326-5.333,48.187-13.94,26.5-24.1,55.328-28.9,84.879,1.452-8.9,7.631-34.253,25.883-45.519,5.361-3.308,18.545-5.239,18.545,5.731,0,19.278-18.739,42.43-23.427,60.519" transform="translate(-1422.024 -391.34)" fill="#96cc7f"/>
          <path id="Path_41728" data-name="Path 41728" d="M1493.1,399.346c-16.885,21.433-50.551,95.6-54.682,138.435" transform="translate(-1409.523 -385.237)" fill="none" stroke="#fff" stroke-miterlimit="10" stroke-width="1"/>
          <path id="Path_41729" data-name="Path 41729" d="M1483.51,445.235c-12.974,12.974-20.931,36.757-25.437,58.91" transform="translate(-1394.543 -350.255)" fill="none" stroke="#fff" stroke-miterlimit="10" stroke-width="1"/>
        </g>
      </g>
      <g id="Group_8649" data-name="Group 8649" transform="translate(0 29.067)">
        <path id="Path_41730" data-name="Path 41730" d="M1187.989,561.532c-10.708-88.563-2.929-127.154,7.154-151.686,4.7-11.432,11.45-22.753,21.007-30.818,38.236-32.27,37.074,30.469,35.279,49.485-4.091,43.325-14.952,89.634-15.933,133.019" transform="translate(-1023.915 -369.957)" fill="#76bb58"/>
        <path id="Path_41731" data-name="Path 41731" d="M1206.383,560.736c-1.216-27.863-13.649-55.043-29.489-77.527-15.928-22.611-37.839-40.648-52.181-64.4-7.684-12.726-19.84-32.734-1.863-43.167,19.937-11.57,49.222.559,65.256,13.789,17.435,14.386,28.893,34.766,38.459,54.891,16.9,35.552,20.286,77.053,20.551,116.414" transform="translate(-1076.769 -369.161)" fill="#96cc7f"/>
        <path id="Path_41732" data-name="Path 41732" d="M1226.076,529.5c.078-28.359-14.37-58.3-37.185-80.447-14.907-14.472-32.741-28.035-53.074-34-10.558-3.1-40.065-8.008-43.022,9.538-1.121,6.648,4.878,19.144,19.252,30.527,19.981,15.822,75.188,40.424,81.845,74.386" transform="translate(-1092.662 -337.925)" fill="#76bb58"/>
        <path id="Path_41733" data-name="Path 41733" d="M1100.459,419.609c38.243,10.4,91.553,45.308,101.688,103.385" transform="translate(-1086.719 -332.105)" fill="none" stroke="#fff" stroke-miterlimit="10" stroke-width="1"/>
        <path id="Path_41734" data-name="Path 41734" d="M1124.3,379.893c38.326,20.212,85.07,83.332,90.3,173.378" transform="translate(-1068.541 -362.382)" fill="none" stroke="#fff" stroke-miterlimit="10" stroke-width="1"/>
        <path id="Path_41735" data-name="Path 41735" d="M1220.53,374.809c-21.544,52.32-25.3,125.771-24.045,182.338" transform="translate(-1013.678 -366.258)" fill="none" stroke="#fff" stroke-miterlimit="10" stroke-width="1"/>
      </g>
      <g id="Group_8650" data-name="Group 8650" transform="translate(40.805 155.777)">
        <path id="Path_41736" data-name="Path 41736" d="M1181.394,506.721c-3.424-15.3-6.431-31.241-15.549-44.421-5.964-8.62-18.124-20.63-28.948-20.441-8.047.141-9.876,7.881-8.94,14.849,2.455,18.263,12.583,23.839,16.515,43.586-1.962-7.479-14.033-33.386-24.632-23.481-11.656,10.895,5.726,29.909,5.726,29.909" transform="translate(-1115.816 -441.856)" fill="#569a39"/>
        <path id="Path_41737" data-name="Path 41737" d="M1120.68,464.427c5.544,6.351,12.662,15.408,15.53,25.087" transform="translate(-1112.109 -424.649)" fill="none" stroke="#fff" stroke-miterlimit="10" stroke-width="1"/>
        <path id="Path_41738" data-name="Path 41738" d="M1130.187,448.219c14.684,14.682,24.937,45.667,27.593,53.651" transform="translate(-1104.861 -437.005)" fill="none" stroke="#fff" stroke-miterlimit="10" stroke-width="1"/>
      </g>
    </g>
    <g id="Group_8657" data-name="Group 8657" transform="translate(1213.261 515)">
      <path id="Path_41739" data-name="Path 41739" d="M1440,505.766h199.267a55.8,55.8,0,0,0,55.8-55.8h0a55.8,55.8,0,0,0-55.8-55.8H1213.84a29.6,29.6,0,0,1-29.6-29.6h0a29.6,29.6,0,0,1,29.6-29.6H1571.3a26.208,26.208,0,0,0,26.209-26.209h0a26.21,26.21,0,0,0-26.209-26.211h-327.11a14.419,14.419,0,0,1-14.419-14.419h0a14.419,14.419,0,0,1,14.419-14.419H1339.3" transform="translate(-1146.11 -175.524)" fill="none" stroke="#b3d3f4" stroke-miterlimit="10" stroke-width="1" stroke-dasharray="4"/>
      <g id="Group_8652" data-name="Group 8652" transform="translate(180.281 31.14)">
        <path id="Path_41740" data-name="Path 41740" d="M1300.317,227.437a30.352,30.352,0,0,0-26.255,51.652l-4.1,8.322,9.2-4.3a30.362,30.362,0,1,0,21.155-55.677Z" transform="translate(-1264.901 -227.009)" fill="#f3faff"/>
        <path id="Path_41741" data-name="Path 41741" d="M1276.155,265.22l-3.137-3.759a3.416,3.416,0,0,1,.435-4.813l3.611-3.015a3.42,3.42,0,0,1,4.815.435s1.669,2.508,3.627,2.06c2.228-.509,7.07-4.045,9.679-6.785,1.836-1.928-1.251-5.333-1.251-5.333a3.418,3.418,0,0,1,.433-4.813l3.613-3.015a3.418,3.418,0,0,1,4.813.435l3.137,3.761C1313,248.851,1282.317,272.6,1276.155,265.22Z" transform="translate(-1259.317 -220.621)" fill="#b3d3f4"/>
      </g>
      <path id="Path_41742" data-name="Path 41742" d="M1367.307,271.012c4.5-4.314,6.362-8.754,12.56-10.14a11.705,11.705,0,0,0,3.7-1.123c3.017-1.875,2.4-6.151,3.079-9.538,1.334-6.67,10.049-10.886,16.436-7.952,2.675,1.228,5.1,3.495,8.059,3.292,5.914-.4,5.206-7.7,9.249-11.859,3.819-3.93,11.6-4.445,16.559-1.953a25.411,25.411,0,0,1,8.715,7.078c2.406,3.116,2.3,7.932,4.073,11.365,1.69,3.322,5.743,4.764,7.509,8.031a9.946,9.946,0,0,1,.754,8.838c-2.525,6.062-9.938,10.437-16.658,10.437h-90.781S1362.3,275.819,1367.307,271.012Z" transform="translate(-1066.318 -233.423)" fill="#dff2ff"/>
      <path id="Path_41743" data-name="Path 41743" d="M1270.107,243.819c-3.8-3.648-5.377-7.4-10.615-8.572a9.922,9.922,0,0,1-3.13-.948c-2.55-1.586-2.029-5.2-2.6-8.061-1.128-5.638-8.493-9.2-13.891-6.722-2.261,1.038-4.311,2.954-6.812,2.783-5-.34-4.4-6.507-7.816-10.022-3.229-3.322-9.8-3.757-14-1.651a21.517,21.517,0,0,0-7.365,5.981c-2.032,2.635-1.94,6.706-3.442,9.606-1.429,2.807-4.854,4.027-6.346,6.787a8.4,8.4,0,0,0-.638,7.471c2.134,5.123,8.4,8.82,14.078,8.82h76.727S1274.341,247.879,1270.107,243.819Z" transform="translate(-1139.546 -209.34)" fill="#f3faff"/>
      <g id="Group_8654" data-name="Group 8654" transform="translate(423.341 37.242)">
        <g id="Group_8653" data-name="Group 8653">
          <path id="Path_41744" data-name="Path 41744" d="M1460.573,306.294l-53.324-28.535,14.041-41.682,64.9,33.6Z" transform="translate(-1399.443 -226.198)" fill="#cfe0f5"/>
          <path id="Path_41745" data-name="Path 41745" d="M1480.119,273.953l-64.9-33.6,46.265-9.879Z" transform="translate(-1393.37 -230.472)" fill="#cfe0f5"/>
          <rect id="Rectangle_2901" data-name="Rectangle 2901" width="58.507" height="49.421" transform="translate(29.84 9.862) rotate(27.373)" fill="#fff4e1"/>
          <path id="Path_41746" data-name="Path 41746" d="M1424.667,236.077l-21.847,42.2,42.6-2.807Z" transform="translate(-1402.82 -226.198)" fill="#e6f1fc"/>
          <path id="Path_41747" data-name="Path 41747" d="M1471.14,255.144l-21.847,42.2-22.3-36.409Z" transform="translate(-1384.391 -211.663)" fill="#e6f1fc"/>
          <path id="Path_41748" data-name="Path 41748" d="M1467.723,300.387l-64.9-33.6,49.356-15.636Z" transform="translate(-1402.82 -214.709)" fill="#e6f1fc" style="mix-blend-mode: multiply;isolation: isolate"/>
          <path id="Path_41749" data-name="Path 41749" d="M1467.723,297.9l-64.9-33.6,46.265-9.879Z" transform="translate(-1402.82 -212.219)" fill="#e6f1fc"/>
        </g>
      </g>
      <g id="Group_8656" data-name="Group 8656" transform="translate(0 87.57)">
        <g id="Group_8655" data-name="Group 8655">
          <path id="Path_41750" data-name="Path 41750" d="M1219.091,300.136l-43.451,10.879L1162.6,281.162l52.324-13.86Z" transform="translate(-1162.604 -252.723)" fill="#cfe0f5"/>
          <path id="Path_41751" data-name="Path 41751" d="M1214.928,273.609l-52.324,13.86,20.465-28.439Z" transform="translate(-1162.604 -259.03)" fill="#cfe0f5"/>
          <rect id="Rectangle_2902" data-name="Rectangle 2902" width="43.331" height="36.602" transform="matrix(0.967, -0.256, 0.256, 0.967, 4.376, 24.453)" fill="#fff4e1"/>
          <path id="Path_41752" data-name="Path 41752" d="M1162.6,275.167l9.011,34.018,21.974-22.738Z" transform="translate(-1162.604 -246.728)" fill="#e6f1fc"/>
          <path id="Path_41753" data-name="Path 41753" d="M1201.524,267.3l9.011,34.018-30.349-8.878Z" transform="translate(-1149.2 -252.723)" fill="#e6f1fc"/>
          <path id="Path_41754" data-name="Path 41754" d="M1220.041,294.943l-52.324,13.86,19.3-33.135Z" transform="translate(-1158.706 -246.346)" fill="#e6f1fc" style="mix-blend-mode: multiply;isolation: isolate"/>
          <path id="Path_41755" data-name="Path 41755" d="M1220.041,292.912l-52.324,13.86,20.465-28.439Z" transform="translate(-1158.706 -244.314)" fill="#e6f1fc"/>
        </g>
      </g>
    </g>
    <g id="Group_8666" data-name="Group 8666" transform="translate(1336.594 577.145)">
      <g id="Group_8658" data-name="Group 8658" transform="translate(104.149)">
        <path id="Path_41756" data-name="Path 41756" d="M1291.684,258.022l1.614-2.517a17.94,17.94,0,0,1-.462-4.066c0-1.01.333-3.683.737-3.905s.59,2.258.763,2.162,1.466-4.966,2.194-4.9c.37.033-.9,4.755-.9,4.755s1.248-5.125,1.824-4.947-.795,5.067-.795,5.067,1.2-4.644,1.688-4.494-.777,4.677-.777,4.677,1.195-4.027,1.461-3.8c.4.349-.053,3.123-1.209,7.041-.2.678-1.177,2.924-1.232,3.1s-1.154,4.24-1.154,4.24" transform="translate(-1291.684 -244.602)" fill="#fc8975"/>
        <path id="Path_41757" data-name="Path 41757" d="M1293.293,247.772a6.369,6.369,0,0,1,1.308,3.151,4.88,4.88,0,0,1-.458,2.013" transform="translate(-1290.458 -242.186)" fill="none" stroke="#cc6658" stroke-miterlimit="10" stroke-width="0.5"/>
      </g>
      <g id="Group_8659" data-name="Group 8659" transform="translate(20.169 129.385)">
        <path id="Path_41758" data-name="Path 41758" d="M1262.58,424.439s9.421,3.442,9.486,6.226c.037,1.6-13.668,1.554-14.523.5-1.366-1.692,1.008-6.371,1.008-6.371Z" transform="translate(-1234.053 -236.891)" fill="#352e72"/>
        <path id="Path_41759" data-name="Path 41759" d="M1261.934,420.847l.21,8.02a2.022,2.022,0,0,1-1.687,1.487c-1.389.183-2.347-1.376-2.347-1.376l-.411-10.035" transform="translate(-1233.611 -241.081)" fill="#fc8975"/>
        <path id="Path_41760" data-name="Path 41760" d="M1278.795,319.256s5.13,31.137,2.554,90.876c-1.761,40.8-7.273,90.126-9.293,90.182a26.428,26.428,0,0,1-3.826-.194S1255.379,441,1254.5,407.7c-1.346-51.272-14.871-63.033-9.007-89.678" transform="translate(-1244.031 -318.019)" fill="url(#linear-gradient)"/>
        <path id="Path_41761" data-name="Path 41761" d="M1263.4,419.613l-.378,3.533-5.63.155-.266-3.515Z" transform="translate(-1234.049 -240.571)" fill="#75a1e9"/>
      </g>
      <g id="Group_8660" data-name="Group 8660" transform="translate(2.367 129.841)">
        <path id="Path_41762" data-name="Path 41762" d="M1246.087,424.892s9.422,3.442,9.487,6.226c.037,1.6-13.671,1.554-14.524.5-1.365-1.694,1.008-6.373,1.008-6.373Z" transform="translate(-1228.824 -237.003)" fill="#352e72"/>
        <path id="Path_41763" data-name="Path 41763" d="M1245.441,421.3l.21,8.02a2.022,2.022,0,0,1-1.687,1.487c-1.39.183-2.347-1.376-2.347-1.376l-.411-10.033" transform="translate(-1228.383 -241.191)" fill="#fc8975"/>
        <path id="Path_41764" data-name="Path 41764" d="M1269.875,319.515s-2.416,39.6-5.458,85.313c-1.2,18.06-11.575,93.569-13.038,96.068l-5.13.141s-7.8-65.344-8.676-98.645c-1.346-51.273-6.859-57.468-1-84.114" transform="translate(-1233.93 -318.278)" fill="url(#linear-gradient-2)"/>
        <path id="Path_41765" data-name="Path 41765" d="M1246.982,420.064l-.378,3.533-5.63.155-.266-3.515Z" transform="translate(-1228.763 -240.683)" fill="#75a1e9"/>
        <path id="Path_41766" data-name="Path 41766" d="M1256.083,330.349s-2,50.6-5.692,80.237" transform="translate(-1221.382 -309.076)" fill="none" stroke="#4a578e" stroke-miterlimit="10" stroke-width="0.5"/>
      </g>
      <path id="Path_41767" data-name="Path 41767" d="M1276.279,260.977c-3.213-5.669-11.931-4.811-16.917-2.215-7.069,3.683-8.748,14.178-15.357,18.667-2.924,1.986-6.452,3.155-8.8,5.826-2.731,3.114-3.265,7.855-1.9,11.8a18.155,18.155,0,0,0,7.922,9.254,38.414,38.414,0,0,0,11.487,4.256c6.369,1.468,13.152,2.254,19.334.1s11.543-7.911,11.52-14.589c-.017-5.652-3.727-10.932-3.077-16.543" transform="translate(-1232.587 -235.343)"/>
      <path id="Path_41768" data-name="Path 41768" d="M1335.91,251.129s-16.876,24.213-20.738,29.724c-6,8.57-30.673,10.229-43.864,18.039l-9.146.992c-4.344.885-19.334,11.554-20.736,15.85-3.2,9.809-6.426,19.761-7,30.085-.194,3.5-.081,7.011.033,10.516q.249,7.605.5,15.213a1.648,1.648,0,0,0,.234.967,1.556,1.556,0,0,0,.932.462c16.562,3.824,33.814,1.766,50.67-.31a2.811,2.811,0,0,0,1.655-.582,2.891,2.891,0,0,0,.61-2.048c.088-3.243-.1-6.487-.228-9.73a281.364,281.364,0,0,1,1.479-42.067c5.222-3.276,26.816-10.054,34.043-20.138,16.176-22.57,16.176-45.824,16.176-45.824Z" transform="translate(-1231.262 -239.627)" fill="#9e0b0f"/>
      <path id="Path_41769" data-name="Path 41769" d="M1259.263,283.243l-.33-11.586-5.134.708-3.676,11.75a5.668,5.668,0,0,0,5.477,1.909C1258.877,285.571,1259.263,283.243,1259.263,283.243Z" transform="translate(-1219.217 -223.978)" fill="#fc8975"/>
      <path id="Path_41770" data-name="Path 41770" d="M1249.109,275.4c-.264-4.543,1.079-9.42,3.477-12.09s6.871-3.052,10.172-2.6a6.183,6.183,0,0,1,3.142,1.272c3.257,2.709,3.042,8.949,2.813,12.775a15.849,15.849,0,0,1-3.181,9.032,6.19,6.19,0,0,1-2.335,1.905,10.973,10.973,0,0,1-10.223-1.521C1250.378,282.1,1249.3,278.636,1249.109,275.4Z" transform="translate(-1220.016 -232.45)" fill="#fc8975"/>
      <path id="Path_41771" data-name="Path 41771" d="M1250.155,281.569c-1.208.564-3.081.971-4.02-.354-.749-1.059-.095-2.647.167-3.775a101.037,101.037,0,0,1,3.167-10.8,20.31,20.31,0,0,1,2.5-5.216c2.22-3.058,8.533-4.478,12.241-4.126,4.08-.271,10.576,6.373,7.02,14.1-.527-1.891-1.276-1.729-2.668-3.326a8.223,8.223,0,0,1-5.079,2.242c-2.466.222-5.315-.338-7.125,1.389-1.854,1.771-1.47,4.929-2.811,7.13A7.593,7.593,0,0,1,1250.155,281.569Z" transform="translate(-1222.524 -234.964)"/>
      <path id="Path_41772" data-name="Path 41772" d="M1252.051,270.194a1.464,1.464,0,0,0-1.205-1.8c-1.877-.2-2.436,2.746-1.708,4.085.539.994,1.9,1.812,2.6.615" transform="translate(-1220.205 -226.475)" fill="#fc8975"/>
      <g id="Group_8665" data-name="Group 8665" transform="translate(22.466 21.732)">
        <g id="Group_8663" data-name="Group 8663" transform="translate(7.071 24.671)">
          <g id="Group_8661" data-name="Group 8661">
            <path id="Path_41773" data-name="Path 41773" d="M1254.8,275.154a9.269,9.269,0,0,1-1.38-.226,6.025,6.025,0,0,1-3.514-2.3,2.706,2.706,0,0,1-.562-1.473.215.215,0,0,1,.206-.224.212.212,0,0,1,.219.21,2.277,2.277,0,0,0,.483,1.232,5.594,5.594,0,0,0,3.269,2.131,13.364,13.364,0,0,0,3.921.219.211.211,0,0,1,.224.2.215.215,0,0,1-.2.229A18.43,18.43,0,0,1,1254.8,275.154Z" transform="translate(-1249.347 -270.933)" fill="#081466"/>
          </g>
          <g id="Group_8662" data-name="Group 8662" transform="translate(7.337 3.309)">
            <path id="Path_41774" data-name="Path 41774" d="M1255.246,272.965a1.535,1.535,0,0,0-1.195-.065c-1.352.437.113,2.194,1.332,1.29a.851.851,0,0,0,.247-.268A.752.752,0,0,0,1255.246,272.965Z" transform="translate(-1253.51 -272.81)" fill="#081466"/>
          </g>
        </g>
        <g id="Group_8664" data-name="Group 8664" transform="translate(3.52)">
          <path id="Path_41775" data-name="Path 41775" d="M1247.332,271.3a18.058,18.058,0,0,1,3.271-8.826c2.377-3.036,5.553-5.537,8.6-5.537a9.738,9.738,0,0,1,3.823.6,16.377,16.377,0,0,0-8.313,4.92,14.959,14.959,0,0,0-4.018,9.888" transform="translate(-1247.332 -256.934)" fill="#c8c8c8"/>
        </g>
        <path id="Path_41776" data-name="Path 41776" d="M1256.56,270.361c.347,3.415-1.875,6.45-4.965,6.778s-5.877-2.173-6.225-5.588,1.877-6.448,4.966-6.778S1256.212,266.945,1256.56,270.361Z" transform="translate(-1245.335 -250.98)" fill="#c8c8c8"/>
        <path id="Path_41777" data-name="Path 41777" d="M1253.372,269.912a4.023,4.023,0,0,1-3.225,4.628,3.978,3.978,0,0,1-4.087-3.849,4.024,4.024,0,0,1,3.225-4.628A3.978,3.978,0,0,1,1253.372,269.912Z" transform="translate(-1244.801 -249.989)" fill="#0d466b"/>
      </g>
    </g>
    <g id="Group_8668" data-name="Group 8668" transform="translate(1290.935 608.739)">
      <path id="Path_41778" data-name="Path 41778" d="M1395.6,262.53,1206.679,427.95V655.418h377.833V427.95Z" transform="translate(-1206.679 -262.53)" fill="url(#linear-gradient-3)"/>
      <path id="Path_41847" data-name="Path 41847" d="M0,0H339.639V311.223H0Z" transform="translate(19.097 58.19)" fill="#ffbe44"/>
      <g id="Group_8667" data-name="Group 8667" transform="translate(38.547 68.474)">
        <rect id="Rectangle_2904" data-name="Rectangle 2904" width="300.74" height="26.575" transform="translate(0 30.153)" fill="#fff"/>
        <rect id="Rectangle_2905" data-name="Rectangle 2905" width="300.74" height="26.575" transform="translate(0 69.177)" fill="#fff"/>
        <rect id="Rectangle_2906" data-name="Rectangle 2906" width="300.74" height="158.02" transform="translate(0 108.202)" fill="#fff"/>
        <text id="NAME" transform="translate(9.733 46.848)" fill="#9e0b0f" font-size="10" font-family="OpenSans-Bold, Open Sans" font-weight="700" letter-spacing="0.1em"><tspan x="0" y="0">NAME</tspan></text>
        <text id="EMAIL" transform="translate(9.733 86.798)" fill="#9e0b0f" font-size="10" font-family="OpenSans-Bold, Open Sans" font-weight="700" letter-spacing="0.1em"><tspan x="0" y="0">EMAIL</tspan></text>
        <text id="MESAGE" transform="translate(9.733 125.781)" fill="#9e0b0f" font-size="10" font-family="OpenSans-Bold, Open Sans" font-weight="700" letter-spacing="0.1em"><tspan x="0" y="0">MESAGE</tspan></text>
        <text id="CONTACT_US" data-name="CONTACT US" transform="translate(147.497 16)" fill="#fff" font-size="15" font-family="OpenSans-Bold, Open Sans" font-weight="700"><tspan x="-47.234" y="0">CONTACT US</tspan></text>
      </g>
      <path id="Path_41779" data-name="Path 41779" d="M1395.6,500.8l-188.917-144.41V560.387h377.833V356.395Z" transform="translate(-1206.679 -190.974)" fill="#c9d3f4" opacity="0.55" style="mix-blend-mode: multiply;isolation: isolate"/>
      <path id="Path_41780" data-name="Path 41780" d="M1395.6,524.315,1206.679,356.395V583.862h377.833V356.395Z" transform="translate(-1206.679 -190.974)" fill="url(#linear-gradient-4)"/>
      <path id="Path_41781" data-name="Path 41781" d="M1395.6,384.407l-188.917,178.1h377.833Z" transform="translate(-1206.679 -169.62)" fill="#c9d3f4" opacity="0.35" style="mix-blend-mode: multiply;isolation: isolate"/>
      <path id="Path_41782" data-name="Path 41782" d="M1395.6,394.256,1206.679,555h377.833Z" transform="translate(-1206.679 -162.111)" fill="url(#linear-gradient-5)"/>
    </g>
    <g id="Group_8669" data-name="Group 8669" transform="translate(1601.954 928.812)">
      <path id="Path_41783" data-name="Path 41783" d="M1384.626,528c-3.826-19.925.167-40.387,8.13-57.426,5.209-11.143,17.209-26.669,30.591-26.426,9.948.182,14.124,10.188,14.7,19.2,1.509,23.612-9.585,30.82-9.527,56.349.561-9.67,9.911-41.068,24.52-30.356,14.3,10.491.368,38.664.368,38.664" transform="translate(-1383.16 -444.148)" fill="#569a39"/>
      <path id="Path_41784" data-name="Path 41784" d="M1425.772,473.328c-4.9,8.211-10.96,19.92-11.906,32.43" transform="translate(-1359.752 -421.904)" fill="#569a39" stroke="#fff" stroke-miterlimit="10" stroke-width="1"/>
      <path id="Path_41785" data-name="Path 41785" d="M1413.677,452.374c-13.5,18.982-17.784,59.038-18.9,69.358" transform="translate(-1374.308 -437.878)" fill="#569a39" stroke="#fff" stroke-miterlimit="10" stroke-width="1"/>
    </g>
    <g id="Group_8671" data-name="Group 8671" transform="translate(1320.417 636.301)">
      <g id="Group_8670" data-name="Group 8670" transform="translate(31.786 54.907)">
        <path id="Path_41786" data-name="Path 41786" d="M1242.984,309.325s2.392,1.692,3.221,1.741,2.732-.571,5.086-.337c1.051.1,3.764.707,3.918,1.135s-2.457.365-2.392.548,4.882,1.977,4.672,2.7c-.105.368-4.771-1.383-4.771-1.383s5.086,1.775,4.792,2.335-5.113-1.313-5.113-1.313,4.6,1.68,4.348,2.154-4.74-.723-4.74-.723,3.91.855,3.7,1.32c-.109.243-4.4-.3-8.068-1.68a28,28,0,0,1-6.193-3.391" transform="translate(-1241.444 -309.325)" fill="#fc8975"/>
      </g>
      <path id="Path_41787" data-name="Path 41787" d="M1258.41,298.644c-4.237,6.455-14.041,13.91-19.455,18.48,3.107,4.214,20.7,17.345,20.7,17.345l-1.634,3.914s-33.521-6.013-34.587-22.567c-.638-9.9,11.9-24.495,21.631-31.352,9.122-6.427,19.8-7.476,25.422-5.194" transform="translate(-1223.408 -278.169)" fill="#9e0b0f"/>
    </g>
    <g id="Group_8684" data-name="Group 8684" transform="translate(1591.311 707.677)">
      <path id="Path_41788" data-name="Path 41788" d="M1386.65,337.268c-3.694-1.517-8.956-6.022-8.35-8.584.259-1.091,2.862,1.877,3.593,1.146.481-.481.087-2.677-1.248-3.745s-4.1-3.031-3.419-3.711,7.449.827,8.969,3.123a25.94,25.94,0,0,1,2.659,8.153l2.805,3.62" transform="translate(-1377.121 -315.972)" fill="#fc8975"/>
      <g id="Group_8672" data-name="Group 8672" transform="translate(64.256 131.22)">
        <path id="Path_41789" data-name="Path 41789" d="M1427.748,493.958s-11.531,3.493-11.52,6.122c.005,1.509,16.941,1.112,17.962.092,1.632-1.634-1.452-5.987-1.452-5.987Z" transform="translate(-1411.564 -316.262)" fill="#352e72"/>
        <path id="Path_41790" data-name="Path 41790" d="M1422.765,490.613v7.575a2.311,2.311,0,0,0,2.132,1.361,3.583,3.583,0,0,0,2.857-1.361l.182-9.48" transform="translate(-1406.58 -320.264)" fill="#fc8975"/>
        <path id="Path_41791" data-name="Path 41791" d="M1416.011,395.158s-5.327,29.517-.2,85.831c3.5,38.461,11.912,84.867,14.409,84.867a42.337,42.337,0,0,0,4.721-.282s13.959-56.13,13.959-87.581c0-48.422,16.328-59.872,8.219-84.865" transform="translate(-1413.581 -393.128)" fill="#1e1c1c"/>
        <path id="Path_41792" data-name="Path 41792" d="M1422.031,489.416l.582,3.325h6.962l.215-3.325Z" transform="translate(-1407.14 -319.725)" fill="#9e0b0f"/>
      </g>
      <g id="Group_8673" data-name="Group 8673" transform="translate(87.237 131.22)">
        <path id="Path_41793" data-name="Path 41793" d="M1448.143,493.958s-11.531,3.493-11.521,6.122c.006,1.509,16.941,1.112,17.962.092,1.632-1.634-1.452-5.987-1.452-5.987Z" transform="translate(-1418.999 -316.262)" fill="#352e72"/>
        <path id="Path_41794" data-name="Path 41794" d="M1443.159,490.613v7.575a2.311,2.311,0,0,0,2.132,1.361,3.583,3.583,0,0,0,2.857-1.361l.182-9.48" transform="translate(-1414.015 -320.264)" fill="#fc8975"/>
        <path id="Path_41795" data-name="Path 41795" d="M1426.622,395.158s4.272,37.312,9.513,80.371c2.071,17.014,17.34,88.006,19.229,90.327h6.341s7.52-61.872,7.52-93.321c0-48.424,6.611-54.414-1.5-79.407" transform="translate(-1426.622 -393.128)" fill="#1e1c1c"/>
        <path id="Path_41796" data-name="Path 41796" d="M1442.331,489.416l.582,3.325h6.962l.215-3.325Z" transform="translate(-1414.646 -319.725)" fill="#9e0b0f"/>
        <path id="Path_41797" data-name="Path 41797" d="M1427.863,404.991s4.11,47.7,9.638,75.576" transform="translate(-1425.676 -384.084)" fill="none" stroke="#5b5555" stroke-miterlimit="10" stroke-width="0.5"/>
      </g>
      <g id="Group_8674" data-name="Group 8674" transform="translate(8.373 17.791)">
        <path id="Path_41798" data-name="Path 41798" d="M1503.473,438.03c0-3.084,2.4-56.278-6.84-68.31-2.613-5.6-12.28-11.94-19.981-14.693-6.79-2.427-11.062-.534-14.153-.09-12.987-3.729-42.684-1.235-50.921-5.465-4.533-2.326-25.741-20.707-25.741-20.707l-3.965,3.084s12.669,26.476,26.915,35.728c10.019,6.507,24.882,10.123,32.827,11.7-.113,1.458-.212,3.058-.293,4.839-.437,9.5-1.523,26.183-.419,53.926.106,2.642-2.753,6.017-2.753,7.779s3.435,7.335,31.992,7.335c24.223,0,35.733-3.553,35.733-7.589C1505.873,441.4,1503.473,441.114,1503.473,438.03Z" transform="translate(-1381.872 -328.765)" fill="#bbb"/>
        <path id="Path_41799" data-name="Path 41799" d="M1416.432,351.246s-.536,9.1-.661,10.889" transform="translate(-1356.03 -311.627)" fill="none" stroke="#707070" stroke-miterlimit="10" stroke-width="0.5" opacity="0.75" style="mix-blend-mode: multiply;isolation: isolate"/>
      </g>
      <path id="Path_41800" data-name="Path 41800" d="M1427.611,325.133c-1.082,4.267-3.715,16-1.3,19.675,2.393,3.632,7.642,4.674,11.651,2.989s6.788-5.567,8.07-9.723,1.248-8.6.973-12.941" transform="translate(-1340.374 -313.743)" fill="#fc8975"/>
      <path id="Path_41801" data-name="Path 41801" d="M1429.992,335.587l-1.679,14.222s.61,3.985,2.784,5.5c5.351-.116,7.939-5.213,7.939-5.213l-1.6-18.314" transform="translate(-1338.095 -308.671)" fill="#fc8975"/>
      <path id="Path_41802" data-name="Path 41802" d="M1443.326,334c-2.753-.99-6.538-.636-9.994-1.221-2.4-.407-4.966-.458-7.227-1.449-4.114-1.8-3.74-8.019-.386-10.382a4.341,4.341,0,0,1,3.224-1.015c1.2.278,1.651,1.546,2.716,2.025a3.564,3.564,0,0,0,1.834.252,2.261,2.261,0,0,0,1.262-.476c.583-.508.825-1.315,1.392-1.856a4.294,4.294,0,0,1,2-1.022,6.105,6.105,0,0,1,4.788.731,5.941,5.941,0,0,0,1.445.946,14.656,14.656,0,0,1,2.732.7c2.305,1.274,3.8,4.533,3.991,7.058.032.4.689.79.927,1.07,2.291,2.672,2.45,6.42,1.83,9.728s-1.764,6.471-4.468,8.644a12.032,12.032,0,0,1-3.5,1.507c-4.767,1.685-2.345-11.459-2.566-15.241" transform="translate(-1342.061 -318.67)"/>
      <path id="Path_41803" data-name="Path 41803" d="M1435.132,332.09a1.579,1.579,0,0,1,2.367-1.1,1.934,1.934,0,0,1,.955,1.489c.092,1.322-.795,3.315-2.427,3.622-.62.115-1.285-.671-1.32-1.276" transform="translate(-1333.221 -309.464)" fill="#fc8975"/>
      <g id="Group_8679" data-name="Group 8679" transform="translate(90.218 2.895)">
        <g id="Group_8677" data-name="Group 8677" transform="translate(2.627 24.121)">
          <g id="Group_8675" data-name="Group 8675" transform="translate(1.197)">
            <path id="Path_41804" data-name="Path 41804" d="M1433.35,338.128a9.206,9.206,0,0,0,1.378-.222,6.03,6.03,0,0,0,3.514-2.247,2.61,2.61,0,0,0,.564-1.44.213.213,0,0,0-.206-.219.21.21,0,0,0-.219.2,2.206,2.206,0,0,1-.483,1.205,5.608,5.608,0,0,1-3.271,2.083,13.591,13.591,0,0,1-3.921.213.212.212,0,0,0-.224.2.215.215,0,0,0,.2.224A18.986,18.986,0,0,0,1433.35,338.128Z" transform="translate(-1430.483 -334)" fill="#081466"/>
          </g>
          <g id="Group_8676" data-name="Group 8676" transform="translate(0 3.235)">
            <path id="Path_41805" data-name="Path 41805" d="M1430.25,335.986a1.58,1.58,0,0,1,1.2-.063c1.352.428-.113,2.145-1.334,1.262a.824.824,0,0,1-.245-.263A.73.73,0,0,1,1430.25,335.986Z" transform="translate(-1429.803 -335.836)" fill="#081466"/>
          </g>
        </g>
        <g id="Group_8678" data-name="Group 8678">
          <path id="Path_41806" data-name="Path 41806" d="M1444.01,334.357a17.422,17.422,0,0,0-3.269-8.63c-2.377-2.97-5.555-5.414-8.6-5.414a9.932,9.932,0,0,0-3.824.589,16.466,16.466,0,0,1,8.315,4.809,14.468,14.468,0,0,1,4.018,9.67" transform="translate(-1428.313 -320.313)" fill="#75a1e9"/>
        </g>
        <path id="Path_41807" data-name="Path 41807" d="M1432.863,333.44a5.642,5.642,0,1,0,6.225-5.463A5.865,5.865,0,0,0,1432.863,333.44Z" transform="translate(-1424.871 -314.492)" fill="#75a1e9"/>
        <path id="Path_41808" data-name="Path 41808" d="M1434.365,333a3.705,3.705,0,1,0,4.089-3.764A3.945,3.945,0,0,0,1434.365,333Z" transform="translate(-1423.719 -313.522)" fill="#a2c0ed"/>
      </g>
      <g id="Group_8682" data-name="Group 8682" transform="translate(28.711 44.053)">
        <g id="Group_8680" data-name="Group 8680" transform="translate(0 41.855)">
          <path id="Path_41809" data-name="Path 41809" d="M1456.989,404.673h-57.022l-5.585-34.454a2.415,2.415,0,0,1,2.384-2.8h50.822a3.951,3.951,0,0,1,3.9,3.318Z" transform="translate(-1392.697 -367.417)" fill="#2c2b2b"/>
          <path id="Path_41810" data-name="Path 41810" d="M1456.052,404.673H1399.03l-5.586-34.454a2.416,2.416,0,0,1,2.384-2.8h50.824a3.949,3.949,0,0,1,3.9,3.318Z" transform="translate(-1393.412 -367.417)" fill="#544747"/>
          <path id="Path_41811" data-name="Path 41811" d="M1416.225,379.476c-.622-2.906-2.834-4.961-4.936-4.593s-3.3,3.024-2.68,5.93,2.834,4.961,4.938,4.591S1416.849,382.382,1416.225,379.476Z" transform="translate(-1381.953 -361.758)" fill="#fff"/>
        </g>
        <g id="Group_8681" data-name="Group 8681" transform="translate(44.884)">
          <path id="Path_41812" data-name="Path 41812" d="M1468.42,356.64c-2.613-5.6-9.518-7.964-17.22-10.717l-2.109,26.017c.952,11.862,5.241,29,5.241,29l-23.846,18.041.035.063a3.914,3.914,0,0,1-.958.511c-.324,0-2.635-1.309-3.863-1.1s-2.636.294-2.636.738,1.878.486,1.878.909-1.263,1.26-1.842,1.26-3.974-.245-4.189.005.723,1.787,1.662,2.619a6.123,6.123,0,0,0,3.014,1.034,20.182,20.182,0,0,0,6.447-1.2c.395-.282,1.384-.834,2.34-1.35l.807,1.493s32.492-2.589,42.273-7.049C1475.754,400.9,1475.676,366.086,1468.42,356.64Z" transform="translate(-1418.88 -341.947)" fill="#9e0b0f" opacity="0.75" style="mix-blend-mode: multiply;isolation: isolate"/>
          <path id="Path_41813" data-name="Path 41813" d="M1432.523,386.658a24.392,24.392,0,0,1-2.96,1.579c-.324,0-2.635-1.119-3.863-.939s-2.636.252-2.636.633,1.878.416,1.878.775-1.263,1.079-1.842,1.079-3.974-.208-4.189.005.723,1.528,1.662,2.238a6.8,6.8,0,0,0,3.014.885,23.193,23.193,0,0,0,6.447-1.029c.867-.529,4.586-2.166,4.586-2.166" transform="translate(-1418.88 -310.894)" fill="#fc8975"/>
          <path id="Path_41814" data-name="Path 41814" d="M1443.419,343.667s16.688,1.056,24.618,16.476,5.453,48.283.606,53.129-41.767,10.819-41.767,10.819l-1.41-3.387,25.994-16.243s-8.1-27.135-8.1-38.149" transform="translate(-1413.86 -343.667)" fill="#bbb"/>
        </g>
      </g>
      <g id="Group_8683" data-name="Group 8683" transform="translate(87.895 41.138)">
        <path id="Path_41815" data-name="Path 41815" d="M1429.887,347.391c1.2,1.2,1.711,2.91,2.867,5.361,5.544-1.828,7.284-7.95,7.284-7.95l-2.214-2.624S1433.468,346.686,1429.887,347.391Z" transform="translate(-1424.79 -341.887)" fill="#6d070a"/>
        <path id="Path_41816" data-name="Path 41816" d="M1432.1,347.517a12.927,12.927,0,0,0-2.784,4.533c-1.41-1.412-2.45-6.5-2.311-7.12a36.082,36.082,0,0,1,2.311-2.917A10.362,10.362,0,0,0,1432.1,347.517Z" transform="translate(-1426.995 -342.013)" fill="#6d070a"/>
      </g>
    </g>
    <g id="Group_8687" data-name="Group 8687" transform="translate(1185.782 787.852)">
      <g id="Group_8685" data-name="Group 8685">
        <path id="Path_41817" data-name="Path 41817" d="M1159.385,493.221s-11.531,3.493-11.52,6.124c.005,1.507,16.94,1.11,17.962.09,1.632-1.632-1.271-6.577-1.271-6.577Z" transform="translate(-1146.362 -266.056)" fill="#0d466b"/>
        <path id="Path_41818" data-name="Path 41818" d="M1154.4,489.719v7.575a2.312,2.312,0,0,0,2.133,1.361,3.584,3.584,0,0,0,2.857-1.361l.182-9.48" transform="translate(-1141.378 -269.901)" fill="#fc8975"/>
        <path id="Path_41819" data-name="Path 41819" d="M1163.865,375.772c-7.749,10.021-16.853,38.375-16.853,92.2,0,38.042,12.336,117.71,12.336,117.71l7.049.589c22.542-142.4,14.934-140.925,20.561-166.248,3.525-15.861-3.637-55.857-3.637-55.857" transform="translate(-1147.012 -364.164)" fill="#0d466b"/>
        <path id="Path_41820" data-name="Path 41820" d="M1169.949,435.566s-4.86-27.017-4.86-32.538c-2.1,11.043-2.1,25.348,0,35.388,1.544,7.368,3.147,14.571,3.147,14.571Z" transform="translate(-1134.435 -334.537)" fill="#0d466b" opacity="0.35" style="mix-blend-mode: multiply;isolation: isolate"/>
        <path id="Path_41821" data-name="Path 41821" d="M1153.841,488.74v3.01s7.37,1.239,7.37.782.333-3.467.333-3.467Z" transform="translate(-1141.806 -269.196)" fill="#0d466b"/>
      </g>
      <g id="Group_8686" data-name="Group 8686" transform="translate(12.042)">
        <path id="Path_41822" data-name="Path 41822" d="M1192.3,493.221s11.531,3.493,11.52,6.124c-.005,1.507-16.939,1.11-17.962.09-1.632-1.632,1.271-6.577,1.271-6.577Z" transform="translate(-1129.817 -266.056)" fill="#0d466b"/>
        <path id="Path_41823" data-name="Path 41823" d="M1190.806,489.719l1.292,7.575a2.307,2.307,0,0,1-2.131,1.361,3.585,3.585,0,0,1-2.859-1.361l-1.473-9.48" transform="translate(-1129.61 -269.901)" fill="#fc8975"/>
        <path id="Path_41824" data-name="Path 41824" d="M1189.016,371.256c7.636,12.849,21.176,39.339,21.176,93.162,0,38.04-1,121.238-1,121.238l-6.048.613c-19.472-54.368-35.686-123.644-39.489-164-1.524-16.177,1.389-58.106,1.389-58.106" transform="translate(-1146.704 -364.164)" fill="#0d466b"/>
        <path id="Path_41825" data-name="Path 41825" d="M1197.056,371.631a217.306,217.306,0,0,0-25.05-5.946c-.019.312-.041.642-.063,1l-13.286,7.927a41.435,41.435,0,0,0-4.811,8.473,60.334,60.334,0,0,0,17.035,3.819c10.993.98,24.729-1.167,31.778-4.462C1200.683,378.122,1198.754,374.564,1197.056,371.631Z" transform="translate(-1153.845 -363.004)" fill="#0d466b" opacity="0.35" style="mix-blend-mode: multiply;isolation: isolate"/>
        <path id="Path_41826" data-name="Path 41826" d="M1193.367,488.419v3.01s-7.735,1.239-7.735.782-.349-3.465-.349-3.465Z" transform="translate(-1129.879 -269.44)" fill="#0d466b"/>
      </g>
    </g>
    <g id="Group_8688" data-name="Group 8688" transform="translate(1300.664 757.793)">
      <path id="Path_41827" data-name="Path 41827" d="M1212.2,355.93l2.5-1.359a16.6,16.6,0,0,1,1.42-3.592c.453-.841,1.928-2.915,2.37-2.915s-.506,2.148-.317,2.148,3.465-3.463,4.053-3.075c.3.2-2.885,3.549-2.885,3.549s3.348-3.7,3.759-3.285-2.938,3.852-2.938,3.852,3.1-3.315,3.444-2.968-2.748,3.537-2.748,3.537,2.813-2.806,2.936-2.5c.19.474-1.436,2.575-4.168,5.306-.474.474-2.307,1.895-2.432,2.021s-2.874,3-2.874,3" transform="translate(-1212.199 -347.108)" fill="#fc8975"/>
      <path id="Path_41828" data-name="Path 41828" d="M1216.232,349.149a5.916,5.916,0,0,1-.292,3.218,4.554,4.554,0,0,1-1.285,1.466" transform="translate(-1210.327 -345.552)" fill="none" stroke="#cc6658" stroke-miterlimit="10" stroke-width="0.5"/>
    </g>
    <g id="Group_8689" data-name="Group 8689" transform="translate(1129.403 706.896)">
      <path id="Path_41829" data-name="Path 41829" d="M1123.108,330.4l-1.745-2.242a16.642,16.642,0,0,0,.132-3.861c-.079-.952-.6-3.442-1.008-3.618s-.395,2.171-.568,2.1-1.792-4.559-2.488-4.438c-.353.062,1.226,4.4,1.226,4.4s-1.593-4.725-2.132-4.512,1.153,4.705,1.153,4.705-1.512-4.277-1.97-4.1,1.107,4.341,1.107,4.341-1.458-3.7-1.7-3.459c-.363.358.289,2.933,1.7,6.529.245.622,1.355,2.658,1.42,2.823s1.436,3.9,1.436,3.9" transform="translate(-1115.021 -318.227)" fill="#fc8975"/>
      <path id="Path_41830" data-name="Path 41830" d="M1118.164,321.08a5.908,5.908,0,0,0-1.017,3.068,4.53,4.53,0,0,0,.592,1.857" transform="translate(-1113.404 -316.052)" fill="none" stroke="#cc6658" stroke-miterlimit="10" stroke-width="0.5"/>
    </g>
    <g id="Group_8690" data-name="Group 8690" transform="translate(1132.472 717.144)">
      <path id="Path_41831" data-name="Path 41831" d="M1286.72,372.448s-25.263,9.309-31,9.309c-4.737,0-12.8-12.8-23.968-21.515a63.466,63.466,0,0,0-14.83-8.383l-21.083-.441a168.244,168.244,0,0,0-19.153,1.535c-10.49,1.424-20.323.955-24.9-1.094-8.855-3.965-31.006-27.771-31.006-27.771a4.656,4.656,0,0,0-4.02,1.466c0,1.177,11.4,33.728,26.435,43.473,11.06,7.171,27.172,8.345,37.229,8.276v6.7c0,3.3-3.948,19.588.719,24.257,4.288,4.288,20.649,4.822,27.038,4.822,9.473,0,19.165-1.5,21.589-4.822,1.216-1.665,1.033-9.076.657-15.87,7.578,4.769,14.428,9.518,23.173,9.518,16.372,0,35.633-25.609,35.633-25.609Z" transform="translate(-1116.762 -324.042)" fill="#bbd6e8"/>
      <path id="Path_41832" data-name="Path 41832" d="M1184.533,370.649l-.212-4.723-7.076-7.163Z" transform="translate(-1070.654 -297.574)" fill="#bbd6e8" opacity="0.75" style="mix-blend-mode: multiply;isolation: isolate"/>
      <path id="Path_41833" data-name="Path 41833" d="M1154.585,358.7c0-.841,1.424-8.954,1.424-10.245-2.125,4.577-5.349,10.206-5.349,10.206Z" transform="translate(-1090.92 -305.434)" fill="#bbd6e8" opacity="0.75" style="mix-blend-mode: multiply;isolation: isolate"/>
    </g>
    <g id="Group_8697" data-name="Group 8697" transform="translate(1192.981 703.189)">
      <path id="Path_41834" data-name="Path 41834" d="M1181.04,318.311c5.952,3.708,4.935,11.291,7.342,16.035,1.738,3.426,4.466,6.33,4.721,10.4.28,4.445-5.495,6.519-8.591,6.04-6.057-.938-11.265,2.146-17.37,1.408-4.157-.5-2.591-2.591-5.3-5.784a12.37,12.37,0,0,1-2.663-6.958,29.487,29.487,0,0,1,.541-7.529" transform="translate(-1144.99 -314.457)"/>
      <path id="Path_41835" data-name="Path 41835" d="M1168.113,335.052l-1.185,10.914-5.294.82s3.69,6.662,9.566,6.662,11.517-6.221,11.517-6.221l-5.736-1.776-2.182-15.331" transform="translate(-1143.064 -305.456)" fill="#fc8975"/>
      <path id="Path_41836" data-name="Path 41836" d="M1160.548,326.259c-.344,3.65-.684,7.37.115,10.949s2.938,7.053,6.3,8.516a13.656,13.656,0,0,0,4.854.952c2.786.125,5.759-.2,7.973-1.9,2.582-1.981,3.6-5.491,3.393-8.738s-1.473-6.323-2.718-9.33q-1.74-4.2-3.477-8.4" transform="translate(-1144.178 -314.457)" fill="#fc8975"/>
      <path id="Path_41837" data-name="Path 41837" d="M1153.873,342.458c-1.158,1.428-2.559,2.852-2.754,4.679a4.466,4.466,0,0,0,2.631,4.365c1.468.661,2.85.437,4.4.331a19.519,19.519,0,0,1,5.088.206c1.426.28,2.792.8,4.187,1.2a14.489,14.489,0,0,0,6.353.552,1.21,1.21,0,0,0,.939-.509,1.381,1.381,0,0,0-.188-1.165c-1.3-2.753-1.323-5.93-1.079-8.969a23.723,23.723,0,0,1,.746-4.628,26.291,26.291,0,0,1,1.429-3.666c1.036-2.282,2.33-4.469,3.313-6.764.959-2.288,1.561-5.824,4.762-5.359,2.062.3,2.94,3.625,4.311,5.65,2.035-2.328,4.326-3.738-.012-9.247-2.171-2.758-5.87-2.607-9.15-2.007-1.845-.125-1.714-.848-3.558-.973-6.02-.407-12.495,3.692-15.132,9.2C1157.207,331.52,1157.893,337.5,1153.873,342.458Z" transform="translate(-1151.097 -316.124)"/>
      <g id="Group_8696" data-name="Group 8696" transform="translate(10.922 0.028)">
        <g id="Group_8694" data-name="Group 8694" transform="translate(7.069 24.121)">
          <g id="Group_8692" data-name="Group 8692">
            <path id="Path_41838" data-name="Path 41838" d="M1166.762,333.954a9.271,9.271,0,0,1-1.38-.22,6.041,6.041,0,0,1-3.512-2.247,2.6,2.6,0,0,1-.564-1.44.214.214,0,0,1,.206-.22.211.211,0,0,1,.219.206,2.2,2.2,0,0,0,.483,1.205,5.613,5.613,0,0,0,3.271,2.081,13.6,13.6,0,0,0,3.921.213.213.213,0,1,1,.023.425A18.962,18.962,0,0,1,1166.762,333.954Z" transform="translate(-1161.306 -329.827)" fill="#081466"/>
          </g>
          <g id="Group_8693" data-name="Group 8693" transform="translate(7.337 3.236)">
            <path id="Path_41839" data-name="Path 41839" d="M1167.206,331.813a1.579,1.579,0,0,0-1.2-.062c-1.352.426.113,2.143,1.334,1.26a.807.807,0,0,0,.245-.263A.73.73,0,0,0,1167.206,331.813Z" transform="translate(-1165.469 -331.663)" fill="#081466"/>
          </g>
        </g>
        <g id="Group_8695" data-name="Group 8695" transform="translate(3.518)">
          <path id="Path_41840" data-name="Path 41840" d="M1159.291,330.184a17.442,17.442,0,0,1,3.271-8.63c2.377-2.968,5.555-5.414,8.6-5.414a9.918,9.918,0,0,1,3.822.589,16.469,16.469,0,0,0-8.313,4.809,14.471,14.471,0,0,0-4.018,9.67" transform="translate(-1159.291 -316.14)" fill="#c8c8c8"/>
        </g>
        <path id="Path_41841" data-name="Path 41841" d="M1168.519,329.267a5.642,5.642,0,1,1-6.224-5.463A5.866,5.866,0,0,1,1168.519,329.267Z" transform="translate(-1157.295 -310.319)" fill="#c8c8c8"/>
        <path id="Path_41842" data-name="Path 41842" d="M1165.331,328.83a3.7,3.7,0,1,1-4.087-3.764A3.942,3.942,0,0,1,1165.331,328.83Z" transform="translate(-1156.762 -309.349)" fill="#0d466b"/>
      </g>
    </g>
    <g id="Group_8699" data-name="Group 8699" transform="translate(1123.739 577.145)">
      <path id="Path_41843" data-name="Path 41843" d="M1364.016,244.716l-8.854,3.706a1.433,1.433,0,0,0-.381,2.407l6.346,5.461a1.434,1.434,0,0,0,2.318-.708l2.506-9.166A1.434,1.434,0,0,0,1364.016,244.716Z" transform="translate(-926.959 -244.602)" fill="none" stroke="#cfe0f5" stroke-miterlimit="10" stroke-width="1"/>
      <path id="Path_41844" data-name="Path 41844" d="M1143.859,311.065l2.6,9.238a1.433,1.433,0,0,0,2.344.673l6.195-5.632a1.434,1.434,0,0,0-.419-2.386l-8.792-3.606A1.432,1.432,0,0,0,1143.859,311.065Z" transform="translate(-1087.415 -195.326)" fill="none" stroke="#cfe0f5" stroke-miterlimit="10" stroke-width="1"/>
      <path id="Path_41845" data-name="Path 41845" d="M1464.965,378.35l6.8-6.769a1.433,1.433,0,0,0-.555-2.374l-7.937-2.665a1.434,1.434,0,0,0-1.879,1.53l1.135,9.434A1.433,1.433,0,0,0,1464.965,378.35Z" transform="translate(-845.311 -151.702)" fill="none" stroke="#cfe0f5" stroke-miterlimit="10" stroke-width="1"/>
      <path id="Path_41846" data-name="Path 41846" d="M1445.361,314.479l2.5,9.265a1.432,1.432,0,0,0,2.335.7l6.254-5.567a1.433,1.433,0,0,0-.395-2.39l-8.753-3.7A1.432,1.432,0,0,0,1445.361,314.479Z" transform="translate(-857.568 -192.713)" fill="none" stroke="#cfe0f5" stroke-miterlimit="10" stroke-width="1"/>
      <rect id="Rectangle_2907" data-name="Rectangle 2907" width="5.486" height="5.486" transform="translate(554.176 106.101) rotate(-37.391)" fill="#cfe0f5"/>
      <rect id="Rectangle_2908" data-name="Rectangle 2908" width="5.486" height="5.486" transform="matrix(0.999, -0.044, 0.044, 0.999, 513.519, 65.367)" fill="#cfe0f5"/>
      <rect id="Rectangle_2909" data-name="Rectangle 2909" width="5.486" height="5.486" transform="matrix(0.932, -0.363, 0.363, 0.932, 161.562, 138.144)" fill="#cfe0f5"/>
      <rect id="Rectangle_2910" data-name="Rectangle 2910" width="5.486" height="5.486" transform="translate(216.05 2.531) rotate(20.972)" fill="#cfe0f5"/>
      <rect id="Rectangle_2911" data-name="Rectangle 2911" width="5.486" height="5.486" transform="matrix(0.999, -0.044, 0.044, 0.999, 0, 276.58)" fill="#cfe0f5"/>
    </g>
  </g>
</svg>
